<?xml version="1.0" encoding="utf-8"?>
<!-- Generator: Adobe Illustrator 27.8.1, SVG Export Plug-In . SVG Version: 6.00 Build 0)  -->
<svg version="1.2" baseProfile="tiny" id="g-returnee_movements-_480-interactions-img" xmlns="http://www.w3.org/2000/svg" xmlns:xlink="http://www.w3.org/1999/xlink"
	 x="0px" y="0px" viewBox="0 0 480 270" overflow="visible" xml:space="preserve">
<g>
	
		<line id="path-1s_00000162310106578589473340000010903881594006004127_" fill="none" stroke="#506489" stroke-width="24" stroke-linecap="round" stroke-linejoin="round" x1="307.18" y1="26.111" x2="301.735" y2="50.353"/>
	
		<path id="path-19s_00000005950158197283736070000013752352185743123865_" fill="none" stroke="#506489" stroke-width="5" stroke-linecap="round" stroke-linejoin="round" d="
		M286.829,178.383c-4.601,12.583-11.598,26.87-22.237,41.25"/>
	
		<path id="path-7s_00000084503684482416324350000013949210147992301210_" fill="none" stroke="#506489" stroke-width="6" stroke-linecap="round" stroke-linejoin="round" d="
		M295.667,136.158c0,0,0.043,17.938-8.838,42.226"/>
	
		<path id="path-3s_00000173872714194300656110000017245826385136820890_" fill="none" stroke="#506489" stroke-width="8" stroke-linecap="round" stroke-linejoin="round" d="
		M303.094,47.318c-12.612,49.853-4.472,60.613-7.321,91.691"/>
	
		<path id="path-2s_00000129894451307442727070000005738225997377448882_" fill="none" stroke="#506489" stroke-width="13" stroke-linecap="round" stroke-linejoin="round" d="
		M304.771,47.778c0,0,0.139,27.395,13.382,36.391"/>
	
		<path id="path-6s_00000000905904312900981830000005123477252442668214_" fill="none" stroke="#506489" stroke-width="4" stroke-linecap="round" stroke-linejoin="round" d="
		M295.667,140.091c0,0,14.883,10.72,17.069,24.594"/>
	
		<path id="path-16s_00000020393381453267875150000009962688637558246534_" fill="none" stroke="#506489" stroke-width="0.5" stroke-linecap="round" stroke-linejoin="round" d="
		M286.965,178.433c0,0,21.159,10.762,25.771,28.946"/>
	
		<path id="path-13s_00000163774356045040822660000010427405773695868598_" fill="none" stroke="#506489" stroke-width="2" stroke-linecap="round" stroke-linejoin="round" d="
		M191.023,103.569c-27.824,12.36-32.727,0.056-47.573,0.028"/>
	
		<path id="path-4s_00000061441678182347830770000015402656684783057538_" fill="none" stroke="#506489" stroke-width="10" stroke-linecap="round" stroke-linejoin="round" d="
		M297.986,45.647c-3.976,10.306-11.558,24.792-19.724,32.42c-4.006,3.742-8.521,6.198-13.619,8.089
		c-5.656,2.097-11.192,2.9-16.214,6.585"/>
	
		<path id="path-5s_00000020362342554696078750000012929291146944955541_" fill="none" stroke="#506489" stroke-width="8" stroke-linecap="round" stroke-linejoin="round" d="
		M248.591,92.902c0,0-4.384,18.08-18.705,18.697"/>
	
		<path id="path-12s_00000176027773182842258340000013100541474692144772_" fill="none" stroke="#506489" stroke-width="2" stroke-linecap="round" stroke-linejoin="round" d="
		M191.023,103.569c0,0,6.617,8.526,1.729,26.544"/>
	
		<path id="path-18s_00000021097340459442922460000010910877026616077747_" fill="none" stroke="#506489" stroke-width="2" stroke-linecap="round" stroke-linejoin="round" d="
		M187.723,160.599c-7.481-1.029-14.531-3.945-20.845-8.211"/>
	
		<path id="path-17s_00000094603608391728500980000011444329855149440160_" fill="none" stroke="#506489" stroke-width="2" stroke-linecap="round" stroke-linejoin="round" d="
		M213.289,147.243c-0.968,1.072-1.837,2.237-2.581,3.511c-1.712,2.933-3.383,5.988-6.375,7.804
		c-3.335,2.024-7.463,2.504-11.29,2.446c-1.794-0.027-3.568-0.165-5.319-0.405"/>
	
		<path id="path-8s_00000093164887557677509400000005421623319560996239_" fill="none" stroke="#506489" stroke-width="3" stroke-linecap="round" stroke-linejoin="round" d="
		M300.486,46.725c0,0-17.329,58.177-34.182,74.997c-4.449,4.44-11.036,6.384-16.867,8.448c-7.052,2.495-14.244,4.623-21.136,7.55
		c-5.395,2.291-11.033,5.117-15.011,9.523"/>
	
		<path id="path-10s_00000157284107069092158090000017965751210129894332_" fill="none" stroke="#506489" stroke-width="2" stroke-linecap="round" stroke-linejoin="round" d="
		M209.023,88.402c0,0-9.438-12.779-24.548-6.94"/>
	
		<path id="path-11s_00000036235435256571540030000005571544001356356746_" fill="none" stroke="#506489" stroke-width="5" stroke-linecap="round" stroke-linejoin="round" d="
		M207.838,87.969c-8.693,3.787-7.734,8.985-16.815,15.6"/>
	
		<path id="path-14s_00000082329006323009810380000004311065294799656611_" fill="none" stroke="#506489" stroke-width="0.5" stroke-linecap="round" stroke-linejoin="round" d="
		M188.493,160.697c0,0-6.939,7.258-9.531,15.032s-2.591,17.196-2.591,17.196"/>
	
		<path id="path-15s_00000106111167610020509440000005659335951545402815_" fill="none" stroke="#506489" stroke-width="0.5" stroke-linecap="round" stroke-linejoin="round" d="
		M213.289,147.243c1.221,6.883,3.506,12.041,16.038,16.325"/>
	
		<path id="path-9s_00000015328642545952729520000003007462897711176082_" fill="none" stroke="#506489" stroke-width="7" stroke-linecap="round" stroke-linejoin="round" d="
		M248.589,92.906c-12.388-4.488-27.757-10.597-40.752-4.937"/>
	<g id="size_00000074415775188456824320000013624307155829951116_">
		
			<path id="_x3C_path_x3E__00000078021121351467485470000011531014198930449335_" fill="#18375F" fill-opacity="0.57" stroke="#18375F" stroke-width="0.3" stroke-miterlimit="10" d="
			M320.004,68.855c9.572,0,17.332,7.76,17.332,17.332s-7.76,17.332-17.332,17.332s-17.332-7.76-17.332-17.332
			S310.432,68.855,320.004,68.855L320.004,68.855"/>
		
			<path id="_x3C_path_x3E__00000067955272111704068870000014067709949141234604_" fill="#18375F" fill-opacity="0.57" stroke="#18375F" stroke-width="0.3" stroke-miterlimit="10" d="
			M227.431,101.25c5.877,0,10.642,4.765,10.642,10.642s-4.764,10.642-10.642,10.642s-10.642-4.765-10.642-10.642
			S221.554,101.25,227.431,101.25L227.431,101.25"/>
		
			<path id="_x3C_path_x3E__00000025407501965234966250000003850979243283135872_" fill="#18375F" fill-opacity="0.57" stroke="#18375F" stroke-width="0.3" stroke-miterlimit="10" d="
			M260.658,212.316c5.216,0,9.444,4.228,9.444,9.444s-4.228,9.444-9.444,9.444c-5.216,0-9.444-4.228-9.444-9.444
			S255.442,212.316,260.658,212.316L260.658,212.316"/>
		
			<path id="_x3C_path_x3E__00000069358832217818510400000004748355287945242010_" fill="#18375F" fill-opacity="0.57" stroke="#18375F" stroke-width="0.3" stroke-miterlimit="10" d="
			M140.247,98.337c3.45,0,6.246,2.797,6.246,6.246s-2.797,6.246-6.246,6.246c-3.45,0-6.246-2.797-6.246-6.246
			S136.798,98.337,140.247,98.337L140.247,98.337"/>
		
			<path id="_x3C_path_x3E__00000004514132893863350350000002368110427171938986_" fill="#18375F" fill-opacity="0.57" stroke="#18375F" stroke-width="0.3" stroke-miterlimit="10" d="
			M312.794,160.821c2.962,0,5.363,2.401,5.363,5.363s-2.401,5.363-5.363,5.363s-5.363-2.401-5.363-5.363
			S309.832,160.821,312.794,160.821L312.794,160.821"/>
		
			<path id="_x3C_path_x3E__00000088124876719794739360000016385299571241824142_" fill="#18375F" fill-opacity="0.57" stroke="#18375F" stroke-width="0.3" stroke-miterlimit="10" d="
			M165.401,146.331c2.695,0,4.88,2.185,4.88,4.88c0,2.695-2.185,4.88-4.88,4.88c-2.695,0-4.88-2.185-4.88-4.88
			C160.521,148.516,162.706,146.331,165.401,146.331L165.401,146.331"/>
		
			<path id="_x3C_path_x3E__00000115484434703414413530000004930921569410475906_" fill="#18375F" fill-opacity="0.57" stroke="#18375F" stroke-width="0.3" stroke-miterlimit="10" d="
			M192.787,126.387c2.372,0,4.294,1.923,4.294,4.294c0,2.372-1.923,4.294-4.294,4.294s-4.294-1.923-4.294-4.294
			C188.493,128.31,190.416,126.387,192.787,126.387L192.787,126.387"/>
		
			<path id="_x3C_path_x3E__00000060017725893550461750000002785877997448371895_" fill="#18375F" fill-opacity="0.57" stroke="#18375F" stroke-width="0.3" stroke-miterlimit="10" d="
			M183.051,78.327c1.731,0,3.135,1.404,3.135,3.135s-1.404,3.135-3.135,3.135c-1.731,0-3.135-1.404-3.135-3.135
			S181.32,78.327,183.051,78.327L183.051,78.327"/>
		
			<path id="_x3C_path_x3E__00000146482167466456160290000018101780569405332116_" fill="#18375F" fill-opacity="0.57" stroke="#18375F" stroke-width="0.5" stroke-miterlimit="10" d="
			M229.712,163.15c0.308,0,0.559,0.25,0.559,0.559c0,0.308-0.25,0.559-0.559,0.559s-0.559-0.25-0.559-0.559
			C229.153,163.4,229.403,163.15,229.712,163.15L229.712,163.15"/>
		
			<path id="_x3C_path_x3E__00000088811584467054645360000014363401843620452539_" fill="#18375F" fill-opacity="0.57" stroke="#18375F" stroke-width="0.5" stroke-miterlimit="10" d="
			M312.794,207.321c0.308,0,0.559,0.25,0.559,0.559c0,0.308-0.25,0.559-0.559,0.559c-0.308,0-0.559-0.25-0.559-0.559
			C312.236,207.571,312.486,207.321,312.794,207.321L312.794,207.321"/>
		
			<path id="_x3C_path_x3E__00000029752163085687531960000010516889886060655260_" fill="#18375F" fill-opacity="0.57" stroke="#18375F" stroke-width="0.5" stroke-miterlimit="10" d="
			M176.371,193.269c0.268,0,0.486,0.218,0.486,0.486s-0.218,0.486-0.486,0.486s-0.486-0.218-0.486-0.486
			S176.103,193.269,176.371,193.269L176.371,193.269"/>
		
			<path id="_x3C_path_x3E__00000153666048481807827810000016504512147520237991_" fill="#18375F" fill-opacity="0.57" stroke="#18375F" stroke-width="0.5" stroke-miterlimit="10" d="
			M1003.913,100.407c13.959,0,25.276,11.316,25.276,25.276s-11.316,25.276-25.276,25.276c-13.959,0-25.276-11.316-25.276-25.276
			S989.953,100.407,1003.913,100.407L1003.913,100.407"/>
		
			<path id="_x3C_path_x3E__00000000943950687062180490000014540488065904616337_" fill="#18375F" fill-opacity="0.57" stroke="#18375F" stroke-width="0.5" stroke-miterlimit="10" d="
			M868.91,147.649c8.571,0,15.519,6.948,15.519,15.519c0,8.571-6.948,15.519-15.519,15.519c-8.571,0-15.519-6.948-15.519-15.519
			C853.391,154.597,860.339,147.649,868.91,147.649L868.91,147.649"/>
		
			<path id="_x3C_path_x3E__00000124121021053032627220000015113882241034519740_" fill="#18375F" fill-opacity="0.57" stroke="#18375F" stroke-width="0.5" stroke-miterlimit="10" d="
			M917.366,309.615c7.606,0,13.772,6.166,13.772,13.772s-6.166,13.772-13.772,13.772c-7.606,0-13.772-6.166-13.772-13.772
			S909.76,309.615,917.366,309.615L917.366,309.615"/>
		
			<path id="_x3C_path_x3E__00000151526745234199969830000000255223080074351527_" fill="#18375F" fill-opacity="0.57" stroke="#18375F" stroke-width="0.5" stroke-miterlimit="10" d="
			M741.767,143.4c5.031,0,9.109,4.078,9.109,9.109c0,5.031-4.078,9.109-9.109,9.109s-9.109-4.078-9.109-9.109
			C732.658,147.478,736.736,143.4,741.767,143.4L741.767,143.4"/>
		
			<path id="_x3C_path_x3E__00000179625053366719523340000013105963247564296103_" fill="#18375F" fill-opacity="0.57" stroke="#18375F" stroke-width="0.5" stroke-miterlimit="10" d="
			M993.398,234.52c4.32,0,7.821,3.502,7.821,7.821s-3.502,7.821-7.821,7.821s-7.821-3.502-7.821-7.821
			S989.078,234.52,993.398,234.52L993.398,234.52"/>
		
			<path id="_x3C_path_x3E__00000073001034558036137470000010364586405997056401_" fill="#18375F" fill-opacity="0.57" stroke="#18375F" stroke-width="0.5" stroke-miterlimit="10" d="
			M778.45,213.389c3.931,0,7.117,3.186,7.117,7.117s-3.186,7.117-7.117,7.117c-3.931,0-7.117-3.186-7.117-7.117
			S774.519,213.389,778.45,213.389L778.45,213.389"/>
		
			<path id="_x3C_path_x3E__00000122001621237510231980000000399142920603731379_" fill="#18375F" fill-opacity="0.57" stroke="#18375F" stroke-width="0.5" stroke-miterlimit="10" d="
			M818.388,184.306c3.459,0,6.262,2.804,6.262,6.262s-2.804,6.262-6.262,6.262c-3.458,0-6.262-2.804-6.262-6.262
			S814.929,184.306,818.388,184.306L818.388,184.306"/>
		
			<path id="_x3C_path_x3E__00000153706547518859738220000018322959149727838371_" fill="#18375F" fill-opacity="0.57" stroke="#18375F" stroke-width="0.5" stroke-miterlimit="10" d="
			M804.189,114.22c2.525,0,4.572,2.047,4.572,4.572s-2.047,4.572-4.572,4.572s-4.572-2.047-4.572-4.572
			S801.664,114.22,804.189,114.22L804.189,114.22"/>
		
			<path id="_x3C_path_x3E__00000044856585239901779180000001505221552515920564_" fill="#18375F" fill-opacity="0.57" stroke="#18375F" stroke-width="0.5" stroke-miterlimit="10" d="
			M872.236,237.916c0.45,0,0.814,0.365,0.814,0.814s-0.365,0.814-0.814,0.814s-0.815-0.365-0.815-0.814
			S871.786,237.916,872.236,237.916L872.236,237.916"/>
		
			<path id="_x3C_path_x3E__00000039112917074319066340000014665371842179565712_" fill="#18375F" fill-opacity="0.57" stroke="#18375F" stroke-width="0.5" stroke-miterlimit="10" d="
			M993.398,302.33c0.45,0,0.815,0.365,0.815,0.814s-0.365,0.814-0.815,0.814s-0.814-0.365-0.814-0.814
			S992.948,302.33,993.398,302.33L993.398,302.33"/>
		
			<path id="_x3C_path_x3E__00000031193004772742807220000001926304823703938456_" fill="#18375F" fill-opacity="0.57" stroke="#18375F" stroke-width="0.5" stroke-miterlimit="10" d="
			M794.448,281.839c0.392,0,0.709,0.317,0.709,0.709c0,0.392-0.317,0.709-0.709,0.709c-0.391,0-0.709-0.317-0.709-0.709
			C793.739,282.156,794.056,281.839,794.448,281.839L794.448,281.839"/>
		
			<path id="_x3C_path_x3E__00000044150341224001379440000005629509502180477629_" fill="#18375F" fill-opacity="0.57" stroke="#18375F" stroke-width="0.5" stroke-miterlimit="10" d="
			M1924.269,137.698c19.144,0,34.664,15.52,34.664,34.664s-15.52,34.664-34.664,34.664s-34.664-15.52-34.664-34.664
			S1905.124,137.698,1924.269,137.698L1924.269,137.698"/>
		
			<path id="_x3C_path_x3E__00000083086546514860893840000001843968830987169976_" fill="#18375F" fill-opacity="0.57" stroke="#18375F" stroke-width="0.5" stroke-miterlimit="10" d="
			M1739.122,202.487c11.754,0,21.283,9.529,21.283,21.283s-9.529,21.283-21.283,21.283c-11.754,0-21.283-9.529-21.283-21.283
			S1727.368,202.487,1739.122,202.487L1739.122,202.487"/>
		
			<path id="_x3C_path_x3E__00000082342702276971404350000000211038644957162166_" fill="#18375F" fill-opacity="0.57" stroke="#18375F" stroke-width="0.5" stroke-miterlimit="10" d="
			M1805.577,424.612c10.432,0,18.888,8.456,18.888,18.888s-8.456,18.888-18.888,18.888s-18.888-8.456-18.888-18.888
			S1795.145,424.612,1805.577,424.612L1805.577,424.612"/>
		
			<path id="_x3C_path_x3E__00000017512228995935784920000015182250513348469121_" fill="#18375F" fill-opacity="0.57" stroke="#18375F" stroke-width="0.5" stroke-miterlimit="10" d="
			M1564.755,196.66c6.899,0,12.492,5.593,12.492,12.492s-5.593,12.492-12.492,12.492c-6.899,0-12.492-5.593-12.492-12.492
			S1557.856,196.66,1564.755,196.66L1564.755,196.66"/>
		
			<path id="_x3C_path_x3E__00000032641727767218190220000000165073987446134941_" fill="#18375F" fill-opacity="0.57" stroke="#18375F" stroke-width="0.5" stroke-miterlimit="10" d="
			M1909.849,321.625c5.924,0,10.726,4.802,10.726,10.726c0,5.924-4.802,10.726-10.726,10.726s-10.726-4.802-10.726-10.726
			C1899.122,326.427,1903.925,321.625,1909.849,321.625L1909.849,321.625"/>
		
			<path id="_x3C_path_x3E__00000175304372979284241740000004426445891110460034_" fill="#18375F" fill-opacity="0.57" stroke="#18375F" stroke-width="0.5" stroke-miterlimit="10" d="
			M1615.062,292.645c5.391,0,9.761,4.37,9.761,9.761s-4.37,9.761-9.761,9.761c-5.391,0-9.761-4.37-9.761-9.761
			S1609.672,292.645,1615.062,292.645L1615.062,292.645"/>
		
			<path id="_x3C_path_x3E__00000170240593892104747250000013909521838166644119_" fill="#18375F" fill-opacity="0.57" stroke="#18375F" stroke-width="0.5" stroke-miterlimit="10" d="
			M1669.835,252.759c4.743,0,8.588,3.845,8.588,8.588s-3.845,8.588-8.588,8.588c-4.743,0-8.588-3.845-8.588-8.588
			S1665.092,252.759,1669.835,252.759L1669.835,252.759"/>
		
			<path id="_x3C_path_x3E__00000061450688858552257280000001870660309272157101_" fill="#18375F" fill-opacity="0.57" stroke="#18375F" stroke-width="0.5" stroke-miterlimit="10" d="
			M1650.362,156.642c3.463,0,6.27,2.807,6.27,6.27c0,3.463-2.807,6.27-6.27,6.27s-6.27-2.807-6.27-6.27
			C1644.092,159.449,1646.9,156.642,1650.362,156.642L1650.362,156.642"/>
		
			<path id="_x3C_path_x3E__00000144306043139465687620000009719270063016220064_" fill="#18375F" fill-opacity="0.57" stroke="#18375F" stroke-width="0.5" stroke-miterlimit="10" d="
			M1743.684,326.282c0.617,0,1.117,0.5,1.117,1.117c0,0.617-0.5,1.117-1.117,1.117s-1.117-0.5-1.117-1.117
			C1742.567,326.783,1743.067,326.282,1743.684,326.282L1743.684,326.282"/>
		
			<path id="_x3C_path_x3E__00000116956547468671638910000015510894724153481397_" fill="#18375F" fill-opacity="0.57" stroke="#18375F" stroke-width="0.5" stroke-miterlimit="10" d="
			M1909.849,414.621c0.617,0,1.117,0.5,1.117,1.117s-0.5,1.117-1.117,1.117s-1.117-0.5-1.117-1.117
			S1909.232,414.621,1909.849,414.621L1909.849,414.621"/>
		
			<path id="_x3C_path_x3E__00000019671771188865725020000014003233451351465864_" fill="#18375F" fill-opacity="0.57" stroke="#18375F" stroke-width="0.5" stroke-miterlimit="10" d="
			M1637.003,386.519c0.537,0,0.972,0.435,0.972,0.972s-0.435,0.972-0.972,0.972s-0.972-0.435-0.972-0.972
			S1636.466,386.519,1637.003,386.519L1637.003,386.519"/>
	</g>
</g>
<style>
#g-returnee_movements-_480-interactions-img rect, #g-returnee_movements-_480-interactions-img circle, #g-returnee_movements-_480-interactions-img path, #g-returnee_movements-_480-interactions-img line, #g-returnee_movements-_480-interactions-img polyline { vector-effect: non-scaling-stroke; }
</style>
</svg>

