<?xml version="1.0" encoding="utf-8"?>
<!-- Generator: Adobe Illustrator 27.8.1, SVG Export Plug-In . SVG Version: 6.00 Build 0)  -->
<svg version="1.2" baseProfile="tiny" id="g-returnee_movements-_700-interactions-img" xmlns="http://www.w3.org/2000/svg" xmlns:xlink="http://www.w3.org/1999/xlink"
	 x="0px" y="0px" viewBox="0 0 700 393.75" overflow="visible" xml:space="preserve">
<g>
	
		<line id="path-1m_00000050661718386533976210000018106321763285286282_" fill="none" stroke="#506489" stroke-width="36" stroke-linecap="round" stroke-linejoin="round" x1="448.62" y1="38.074" x2="440.68" y2="73.425"/>
	
		<path id="path-19m_00000076590686322276561350000011014451469260865929_" fill="none" stroke="#506489" stroke-width="6" stroke-linecap="round" stroke-linejoin="round" d="
		M418.941,260.131c-6.71,18.35-16.914,39.184-32.429,60.154"/>
	
		<path id="path-7m_00000089572397624919943280000005340733136671550872_" fill="none" stroke="#506489" stroke-width="8" stroke-linecap="round" stroke-linejoin="round" d="
		M431.83,198.554c0,0,0.063,26.159-12.889,61.578"/>
	
		<path id="path-3m_00000160182158592952890880000010496068104468198836_" fill="none" stroke="#506489" stroke-width="11" stroke-linecap="round" stroke-linejoin="round" d="
		M442.662,69c-18.393,72.7-6.522,88.391-10.677,133.712"/>
	
		<path id="path-2m_00000076599931579923634390000008905613861248504989_" fill="none" stroke="#506489" stroke-width="21" stroke-linecap="round" stroke-linejoin="round" d="
		M445.107,69.67c0,0,0.202,39.951,19.516,53.068"/>
	
		<path id="path-6m_00000065781573009941928430000006276662708003185818_" fill="none" stroke="#506489" stroke-width="4" stroke-linecap="round" stroke-linejoin="round" d="
		M431.83,204.29c0,0,21.705,15.633,24.892,35.865"/>
	
		<path id="path-16m_00000150816720095828614020000004985493952990742166_" fill="none" stroke="#506489" stroke-linecap="round" stroke-linejoin="round" d="
		M419.139,260.204c0,0,30.857,15.694,37.583,42.212"/>
	
		<path id="path-13m_00000018919611615468231080000014648936454712248224_" fill="none" stroke="#506489" stroke-width="4" stroke-linecap="round" stroke-linejoin="round" d="
		M279.224,151.03c-40.577,18.025-47.728,0.082-69.377,0.041"/>
	
		<path id="path-4m_00000029026387991701820620000017546029566360415123_" fill="none" stroke="#506489" stroke-width="14" stroke-linecap="round" stroke-linejoin="round" d="
		M435.212,66.563c-5.799,15.029-16.856,36.154-28.765,47.278c-5.842,5.457-12.426,9.039-19.862,11.796
		c-8.249,3.058-16.322,4.228-23.645,9.602"/>
	
		<path id="path-5m_00000058549502595124040470000000134602942309249962_" fill="none" stroke="#506489" stroke-width="12" stroke-linecap="round" stroke-linejoin="round" d="
		M363.178,135.475c0,0-6.393,26.366-27.279,27.265"/>
	
		<path id="path-12m_00000067230909081173156780000008155397112737889204_" fill="none" stroke="#506489" stroke-width="3" stroke-linecap="round" stroke-linejoin="round" d="
		M279.224,151.03c0,0,9.65,12.433,2.522,38.709"/>
	
		<path id="path-18m_00000078750787890848975510000009418969590141115528_" fill="none" stroke="#506489" stroke-width="4" stroke-linecap="round" stroke-linejoin="round" d="
		M274.412,234.196c-10.91-1.5-21.192-5.752-30.399-11.974"/>
	
		<path id="path-17m_00000145764854617653547520000004728539797560264064_" fill="none" stroke="#506489" stroke-width="4" stroke-linecap="round" stroke-linejoin="round" d="
		M311.696,214.719c-1.411,1.563-2.679,3.263-3.764,5.121c-2.497,4.276-4.934,8.732-9.297,11.381
		c-4.864,2.952-10.883,3.652-16.465,3.567c-2.616-0.04-5.204-0.24-7.757-0.591"/>
	
		<path id="path-8m_00000177454415891636810350000005489596987000195712_" fill="none" stroke="#506489" stroke-width="5" stroke-linecap="round" stroke-linejoin="round" d="
		M438.858,68.135c0,0-25.271,84.84-49.849,109.367c-6.489,6.475-16.094,9.31-24.598,12.319c-10.284,3.638-20.772,6.742-30.824,11.01
		c-7.868,3.341-16.09,7.462-21.891,13.888"/>
	
		<path id="path-10m_00000016034974713052970890000005943894163664176032_" fill="none" stroke="#506489" stroke-width="2.5" stroke-linecap="round" stroke-linejoin="round" d="
		M305.475,128.913c0,0-13.764-18.635-35.799-10.121"/>
	
		<path id="path-11m_00000071561656481909112070000017065958698521236154_" fill="none" stroke="#506489" stroke-width="8" stroke-linecap="round" stroke-linejoin="round" d="
		M303.746,128.281c-12.678,5.522-11.279,13.103-24.522,22.749"/>
	
		<path id="path-14m_00000024001219934106023480000005947900088690781373_" fill="none" stroke="#506489" stroke-linecap="round" stroke-linejoin="round" d="
		M275.535,234.339c0,0-10.12,10.584-13.899,21.921c-3.779,11.337-3.779,25.077-3.779,25.077"/>
	
		<path id="path-15m_00000152231228017130444810000001098070930048186013_" fill="none" stroke="#506489" stroke-linecap="round" stroke-linejoin="round" d="
		M311.696,214.719c1.78,10.037,5.113,17.559,23.389,23.806"/>
	
		<path id="path-9m_00000105403733569652573840000015632982064766542481_" fill="none" stroke="#506489" stroke-width="10" stroke-linecap="round" stroke-linejoin="round" d="
		M363.175,135.481c-18.066-6.545-40.478-15.454-59.429-7.199"/>
	<g id="size_00000178206144551015540170000010712964696333915070_">
		
			<path id="_x3C_path_x3E__00000084498689666966794820000002915558715153653935_" fill="#18375F" fill-opacity="0.57" stroke="#18375F" stroke-width="0.3" stroke-miterlimit="10" d="
			M-216.586,68.855c9.572,0,17.332,7.76,17.332,17.332s-7.76,17.332-17.332,17.332s-17.332-7.76-17.332-17.332
			S-226.158,68.855-216.586,68.855L-216.586,68.855"/>
		
			<path id="_x3C_path_x3E__00000181789481986930840880000013494030797241795736_" fill="#18375F" fill-opacity="0.57" stroke="#18375F" stroke-width="0.3" stroke-miterlimit="10" d="
			M-309.159,101.25c5.877,0,10.642,4.765,10.642,10.642s-4.764,10.642-10.642,10.642c-5.877,0-10.642-4.765-10.642-10.642
			S-315.037,101.25-309.159,101.25L-309.159,101.25"/>
		
			<path id="_x3C_path_x3E__00000156561100740444160300000004165575184765311156_" fill="#18375F" fill-opacity="0.57" stroke="#18375F" stroke-width="0.3" stroke-miterlimit="10" d="
			M-275.932,212.316c5.216,0,9.444,4.228,9.444,9.444s-4.228,9.444-9.444,9.444c-5.216,0-9.444-4.228-9.444-9.444
			S-281.148,212.316-275.932,212.316L-275.932,212.316"/>
		
			<path id="_x3C_path_x3E__00000017483362944523152360000016779291531417256382_" fill="#18375F" fill-opacity="0.57" stroke="#18375F" stroke-width="0.3" stroke-miterlimit="10" d="
			M-396.343,98.337c3.45,0,6.246,2.797,6.246,6.246s-2.797,6.246-6.246,6.246c-3.45,0-6.246-2.797-6.246-6.246
			S-399.793,98.337-396.343,98.337L-396.343,98.337"/>
		
			<path id="_x3C_path_x3E__00000111180185528712115250000002933406586847755692_" fill="#18375F" fill-opacity="0.57" stroke="#18375F" stroke-width="0.3" stroke-miterlimit="10" d="
			M-223.796,160.821c2.962,0,5.363,2.401,5.363,5.363s-2.401,5.363-5.363,5.363c-2.962,0-5.363-2.401-5.363-5.363
			S-226.758,160.821-223.796,160.821L-223.796,160.821"/>
		
			<path id="_x3C_path_x3E__00000087404887586079460160000005585765084574607494_" fill="#18375F" fill-opacity="0.57" stroke="#18375F" stroke-width="0.3" stroke-miterlimit="10" d="
			M-371.189,146.331c2.695,0,4.88,2.185,4.88,4.88c0,2.695-2.185,4.88-4.88,4.88c-2.695,0-4.88-2.185-4.88-4.88
			C-376.07,148.516-373.885,146.331-371.189,146.331L-371.189,146.331"/>
		
			<path id="_x3C_path_x3E__00000142154304468465790640000006992849783911876003_" fill="#18375F" fill-opacity="0.57" stroke="#18375F" stroke-width="0.3" stroke-miterlimit="10" d="
			M-343.803,126.387c2.372,0,4.294,1.923,4.294,4.294c0,2.372-1.923,4.294-4.294,4.294c-2.372,0-4.294-1.923-4.294-4.294
			C-348.097,128.31-346.175,126.387-343.803,126.387L-343.803,126.387"/>
		
			<path id="_x3C_path_x3E__00000133492727946617536100000017943989358764825732_" fill="#18375F" fill-opacity="0.57" stroke="#18375F" stroke-width="0.3" stroke-miterlimit="10" d="
			M-353.539,78.327c1.731,0,3.135,1.404,3.135,3.135s-1.404,3.135-3.135,3.135s-3.135-1.404-3.135-3.135
			S-355.271,78.327-353.539,78.327L-353.539,78.327"/>
		
			<path id="_x3C_path_x3E__00000087373938585126864900000013702867026674395823_" fill="#18375F" fill-opacity="0.57" stroke="#18375F" stroke-width="0.5" stroke-miterlimit="10" d="
			M-306.879,163.15c0.308,0,0.559,0.25,0.559,0.559c0,0.308-0.25,0.559-0.559,0.559c-0.308,0-0.559-0.25-0.559-0.559
			C-307.437,163.4-307.187,163.15-306.879,163.15L-306.879,163.15"/>
		
			<path id="_x3C_path_x3E__00000070080373467730523700000015706022048787071114_" fill="#18375F" fill-opacity="0.57" stroke="#18375F" stroke-width="0.5" stroke-miterlimit="10" d="
			M-223.796,207.321c0.308,0,0.559,0.25,0.559,0.559c0,0.308-0.25,0.559-0.559,0.559s-0.559-0.25-0.559-0.559
			C-224.355,207.571-224.105,207.321-223.796,207.321L-223.796,207.321"/>
		
			<path id="_x3C_path_x3E__00000157293746247383514140000007847899477341522366_" fill="#18375F" fill-opacity="0.57" stroke="#18375F" stroke-width="0.5" stroke-miterlimit="10" d="
			M-360.219,193.269c0.268,0,0.486,0.218,0.486,0.486s-0.218,0.486-0.486,0.486c-0.268,0-0.486-0.218-0.486-0.486
			S-360.488,193.269-360.219,193.269L-360.219,193.269"/>
		
			<path id="_x3C_path_x3E__00000101818914688695011340000014301427351083677881_" fill="#18375F" fill-opacity="0.57" stroke="#18375F" stroke-width="0.5" stroke-miterlimit="10" d="
			M467.322,100.407c13.959,0,25.276,11.316,25.276,25.276s-11.316,25.276-25.276,25.276c-13.959,0-25.276-11.316-25.276-25.276
			S453.363,100.407,467.322,100.407L467.322,100.407"/>
		
			<path id="_x3C_path_x3E__00000159444114376053865220000005607934450944804017_" fill="#18375F" fill-opacity="0.57" stroke="#18375F" stroke-width="0.5" stroke-miterlimit="10" d="
			M332.319,147.649c8.571,0,15.519,6.948,15.519,15.519c0,8.571-6.948,15.519-15.519,15.519c-8.571,0-15.519-6.948-15.519-15.519
			C316.801,154.597,323.749,147.649,332.319,147.649L332.319,147.649"/>
		
			<path id="_x3C_path_x3E__00000072258906154573173240000013236177461601342637_" fill="#18375F" fill-opacity="0.57" stroke="#18375F" stroke-width="0.5" stroke-miterlimit="10" d="
			M380.776,309.615c7.606,0,13.772,6.166,13.772,13.772s-6.166,13.772-13.772,13.772s-13.772-6.166-13.772-13.772
			S373.17,309.615,380.776,309.615L380.776,309.615"/>
		
			<path id="_x3C_path_x3E__00000124857889707662422530000011859170131425102234_" fill="#18375F" fill-opacity="0.57" stroke="#18375F" stroke-width="0.5" stroke-miterlimit="10" d="
			M205.177,143.4c5.031,0,9.109,4.078,9.109,9.109c0,5.031-4.078,9.109-9.109,9.109c-5.031,0-9.109-4.078-9.109-9.109
			C196.068,147.478,200.146,143.4,205.177,143.4L205.177,143.4"/>
		
			<path id="_x3C_path_x3E__00000172425541369013418210000002057009135405453721_" fill="#18375F" fill-opacity="0.57" stroke="#18375F" stroke-width="0.5" stroke-miterlimit="10" d="
			M456.808,234.52c4.32,0,7.821,3.502,7.821,7.821s-3.502,7.821-7.821,7.821s-7.821-3.502-7.821-7.821
			S452.488,234.52,456.808,234.52L456.808,234.52"/>
		
			<path id="_x3C_path_x3E__00000139989991160342907390000018107732814546161043_" fill="#18375F" fill-opacity="0.57" stroke="#18375F" stroke-width="0.5" stroke-miterlimit="10" d="
			M241.859,213.389c3.931,0,7.117,3.186,7.117,7.117s-3.186,7.117-7.117,7.117s-7.117-3.186-7.117-7.117
			S237.929,213.389,241.859,213.389L241.859,213.389"/>
		
			<path id="_x3C_path_x3E__00000163793770874934330460000015597854322234347915_" fill="#18375F" fill-opacity="0.57" stroke="#18375F" stroke-width="0.5" stroke-miterlimit="10" d="
			M281.797,184.306c3.459,0,6.262,2.804,6.262,6.262s-2.804,6.262-6.262,6.262s-6.262-2.804-6.262-6.262
			S278.339,184.306,281.797,184.306L281.797,184.306"/>
		
			<path id="_x3C_path_x3E__00000145046055932919926310000017967835899605782952_" fill="#18375F" fill-opacity="0.57" stroke="#18375F" stroke-width="0.5" stroke-miterlimit="10" d="
			M267.599,114.22c2.525,0,4.572,2.047,4.572,4.572s-2.047,4.572-4.572,4.572s-4.572-2.047-4.572-4.572
			S265.074,114.22,267.599,114.22L267.599,114.22"/>
		
			<path id="_x3C_path_x3E__00000028305911970265267810000017847152032882401935_" fill="#18375F" fill-opacity="0.57" stroke="#18375F" stroke-width="0.5" stroke-miterlimit="10" d="
			M335.646,237.916c0.45,0,0.814,0.365,0.814,0.814s-0.365,0.814-0.814,0.814s-0.814-0.365-0.814-0.814
			S335.196,237.916,335.646,237.916L335.646,237.916"/>
		
			<path id="_x3C_path_x3E__00000118362699403169601570000012147780818830470272_" fill="#18375F" fill-opacity="0.57" stroke="#18375F" stroke-width="0.5" stroke-miterlimit="10" d="
			M456.808,302.33c0.45,0,0.814,0.365,0.814,0.814s-0.365,0.814-0.814,0.814s-0.814-0.365-0.814-0.814
			S456.358,302.33,456.808,302.33L456.808,302.33"/>
		
			<path id="_x3C_path_x3E__00000097458720209585792410000017633881884792504232_" fill="#18375F" fill-opacity="0.57" stroke="#18375F" stroke-width="0.5" stroke-miterlimit="10" d="
			M257.857,281.839c0.392,0,0.709,0.317,0.709,0.709c0,0.392-0.317,0.709-0.709,0.709c-0.392,0-0.709-0.317-0.709-0.709
			C257.148,282.156,257.466,281.839,257.857,281.839L257.857,281.839"/>
		
			<path id="_x3C_path_x3E__00000108991150954928817130000000868058207939792314_" fill="#18375F" fill-opacity="0.57" stroke="#18375F" stroke-width="0.5" stroke-miterlimit="10" d="
			M1387.678,137.698c19.144,0,34.664,15.52,34.664,34.664s-15.52,34.664-34.664,34.664c-19.144,0-34.664-15.52-34.664-34.664
			S1368.534,137.698,1387.678,137.698L1387.678,137.698"/>
		
			<path id="_x3C_path_x3E__00000047021782756388621830000012620814170661661837_" fill="#18375F" fill-opacity="0.57" stroke="#18375F" stroke-width="0.5" stroke-miterlimit="10" d="
			M1202.532,202.487c11.754,0,21.283,9.529,21.283,21.283s-9.529,21.283-21.283,21.283s-21.283-9.529-21.283-21.283
			S1190.777,202.487,1202.532,202.487L1202.532,202.487"/>
		
			<path id="_x3C_path_x3E__00000116953146388442491490000000601740479658125197_" fill="#18375F" fill-opacity="0.57" stroke="#18375F" stroke-width="0.5" stroke-miterlimit="10" d="
			M1268.986,424.612c10.431,0,18.888,8.456,18.888,18.888s-8.456,18.888-18.888,18.888c-10.432,0-18.888-8.456-18.888-18.888
			S1258.555,424.612,1268.986,424.612L1268.986,424.612"/>
		
			<path id="_x3C_path_x3E__00000106836932154812420500000009448698102394483373_" fill="#18375F" fill-opacity="0.57" stroke="#18375F" stroke-width="0.5" stroke-miterlimit="10" d="
			M1028.165,196.66c6.899,0,12.492,5.593,12.492,12.492s-5.593,12.492-12.492,12.492c-6.899,0-12.492-5.593-12.492-12.492
			S1021.265,196.66,1028.165,196.66L1028.165,196.66"/>
		
			<path id="_x3C_path_x3E__00000047023985570003442270000012219883212855433351_" fill="#18375F" fill-opacity="0.57" stroke="#18375F" stroke-width="0.5" stroke-miterlimit="10" d="
			M1373.258,321.625c5.924,0,10.726,4.802,10.726,10.726c0,5.924-4.802,10.726-10.726,10.726c-5.924,0-10.726-4.802-10.726-10.726
			C1362.532,326.427,1367.334,321.625,1373.258,321.625L1373.258,321.625"/>
		
			<path id="_x3C_path_x3E__00000008141135976373654310000008203968791583109760_" fill="#18375F" fill-opacity="0.57" stroke="#18375F" stroke-width="0.5" stroke-miterlimit="10" d="
			M1078.472,292.645c5.391,0,9.761,4.37,9.761,9.761s-4.37,9.761-9.761,9.761c-5.391,0-9.761-4.37-9.761-9.761
			S1073.081,292.645,1078.472,292.645L1078.472,292.645"/>
		
			<path id="_x3C_path_x3E__00000067195959256037283730000004463082884138216320_" fill="#18375F" fill-opacity="0.57" stroke="#18375F" stroke-width="0.5" stroke-miterlimit="10" d="
			M1133.244,252.759c4.743,0,8.588,3.845,8.588,8.588s-3.845,8.588-8.588,8.588c-4.743,0-8.588-3.845-8.588-8.588
			S1128.501,252.759,1133.244,252.759L1133.244,252.759"/>
		
			<path id="_x3C_path_x3E__00000070113466764269511020000012072973188123694475_" fill="#18375F" fill-opacity="0.57" stroke="#18375F" stroke-width="0.5" stroke-miterlimit="10" d="
			M1113.772,156.642c3.463,0,6.27,2.807,6.27,6.27c0,3.463-2.807,6.27-6.27,6.27c-3.463,0-6.27-2.807-6.27-6.27
			C1107.502,159.449,1110.309,156.642,1113.772,156.642L1113.772,156.642"/>
		
			<path id="_x3C_path_x3E__00000173138898044289569350000010694231675079419313_" fill="#18375F" fill-opacity="0.57" stroke="#18375F" stroke-width="0.5" stroke-miterlimit="10" d="
			M1207.093,326.282c0.617,0,1.117,0.5,1.117,1.117c0,0.617-0.5,1.117-1.117,1.117c-0.617,0-1.117-0.5-1.117-1.117
			C1205.976,326.783,1206.476,326.282,1207.093,326.282L1207.093,326.282"/>
		
			<path id="_x3C_path_x3E__00000062898729989809053860000015098207522192085421_" fill="#18375F" fill-opacity="0.57" stroke="#18375F" stroke-width="0.5" stroke-miterlimit="10" d="
			M1373.258,414.621c0.617,0,1.117,0.5,1.117,1.117s-0.5,1.117-1.117,1.117c-0.617,0-1.117-0.5-1.117-1.117
			S1372.641,414.621,1373.258,414.621L1373.258,414.621"/>
		
			<path id="_x3C_path_x3E__00000118358651252993027830000006411994386795994506_" fill="#18375F" fill-opacity="0.57" stroke="#18375F" stroke-width="0.5" stroke-miterlimit="10" d="
			M1100.412,386.519c0.537,0,0.972,0.435,0.972,0.972s-0.435,0.972-0.972,0.972c-0.537,0-0.972-0.435-0.972-0.972
			S1099.875,386.519,1100.412,386.519L1100.412,386.519"/>
	</g>
</g>
<style>
#g-returnee_movements-_700-interactions-img rect, #g-returnee_movements-_700-interactions-img circle, #g-returnee_movements-_700-interactions-img path, #g-returnee_movements-_700-interactions-img line, #g-returnee_movements-_700-interactions-img polyline { vector-effect: non-scaling-stroke; }
</style>
</svg>

