<?xml version="1.0" encoding="utf-8"?>
<!-- Generator: Adobe Illustrator 27.8.1, SVG Export Plug-In . SVG Version: 6.00 Build 0)  -->
<svg version="1.2" baseProfile="tiny" id="g-returnee_movements-_480-interactions-img" xmlns="http://www.w3.org/2000/svg" xmlns:xlink="http://www.w3.org/1999/xlink"
	 x="0px" y="0px" viewBox="0 0 480 270" overflow="visible" xml:space="preserve">
<g>
	
		<line id="path-1s_00000018944487165565431010000012518154772188464775_" fill="none" stroke="#6099D2" stroke-width="24" stroke-linecap="round" stroke-linejoin="round" x1="307.18" y1="26.111" x2="301.735" y2="50.353"/>
	
		<path id="path-19s_00000005952291922481492750000009170768271899542170_" fill="none" stroke="#6099D2" stroke-width="5" stroke-linecap="round" stroke-linejoin="round" d="
		M286.829,178.383c-4.601,12.583-11.598,26.87-22.237,41.25"/>
	
		<path id="path-7s_00000133492792969166237000000005024976714879078028_" fill="none" stroke="#6099D2" stroke-width="6" stroke-linecap="round" stroke-linejoin="round" d="
		M295.667,136.158c0,0,0.043,17.938-8.838,42.226"/>
	
		<path id="path-3s_00000028302699829861295130000002646758662387818631_" fill="none" stroke="#6099D2" stroke-width="8" stroke-linecap="round" stroke-linejoin="round" d="
		M303.094,47.318c-12.612,49.853-4.472,60.613-7.321,91.691"/>
	
		<path id="path-2s_00000155846149164678297450000007876304423949648025_" fill="none" stroke="#6099D2" stroke-width="13" stroke-linecap="round" stroke-linejoin="round" d="
		M304.771,47.778c0,0,0.139,27.395,13.382,36.391"/>
	
		<path id="path-6s_00000033337911974838266280000003534258018516667323_" fill="none" stroke="#6099D2" stroke-width="4" stroke-linecap="round" stroke-linejoin="round" d="
		M295.667,140.091c0,0,14.883,10.72,17.069,24.594"/>
	
		<path id="path-16s_00000095318343092040701790000001008419315000183943_" fill="none" stroke="#6099D2" stroke-width="0.5" stroke-linecap="round" stroke-linejoin="round" d="
		M286.965,178.433c0,0,21.159,10.762,25.771,28.946"/>
	
		<path id="path-13s_00000060031093794655577700000009565068715744021393_" fill="none" stroke="#6099D2" stroke-width="2" stroke-linecap="round" stroke-linejoin="round" d="
		M191.023,103.569c-27.824,12.36-32.727,0.056-47.573,0.028"/>
	
		<path id="path-4s_00000025407717350498854230000007496869305771637128_" fill="none" stroke="#6099D2" stroke-width="10" stroke-linecap="round" stroke-linejoin="round" d="
		M297.986,45.647c-3.976,10.306-11.558,24.792-19.724,32.42c-4.006,3.742-8.521,6.198-13.619,8.089
		c-5.656,2.097-11.192,2.9-16.214,6.585"/>
	
		<path id="path-5s_00000111193035877321149570000015838226995142204339_" fill="none" stroke="#6099D2" stroke-width="8" stroke-linecap="round" stroke-linejoin="round" d="
		M248.591,92.902c0,0-4.384,18.08-18.705,18.697"/>
	
		<path id="path-12s_00000058557488619681539360000003894035704804531859_" fill="none" stroke="#6099D2" stroke-width="2" stroke-linecap="round" stroke-linejoin="round" d="
		M191.023,103.569c0,0,6.617,8.526,1.729,26.544"/>
	
		<path id="path-18s_00000163783055114948178550000013129430655027900811_" fill="none" stroke="#6099D2" stroke-width="2" stroke-linecap="round" stroke-linejoin="round" d="
		M187.723,160.599c-7.481-1.029-14.531-3.945-20.845-8.211"/>
	
		<path id="path-17s_00000122680898895541396500000007150160954829811844_" fill="none" stroke="#6099D2" stroke-width="2" stroke-linecap="round" stroke-linejoin="round" d="
		M213.289,147.243c-0.968,1.072-1.837,2.237-2.581,3.511c-1.712,2.933-3.383,5.988-6.375,7.804
		c-3.335,2.024-7.463,2.504-11.29,2.446c-1.794-0.027-3.568-0.165-5.319-0.405"/>
	
		<path id="path-8s_00000182511339132320496100000010188742659822994828_" fill="none" stroke="#6099D2" stroke-width="3" stroke-linecap="round" stroke-linejoin="round" d="
		M300.486,46.725c0,0-17.329,58.177-34.182,74.997c-4.449,4.44-11.036,6.384-16.867,8.448c-7.052,2.495-14.244,4.623-21.136,7.55
		c-5.395,2.291-11.033,5.117-15.011,9.523"/>
	
		<path id="path-10s_00000089547533222844920320000012111693336444460704_" fill="none" stroke="#6099D2" stroke-width="2" stroke-linecap="round" stroke-linejoin="round" d="
		M209.023,88.402c0,0-9.438-12.779-24.548-6.94"/>
	
		<path id="path-11s_00000037655663834736962960000017119954187349616283_" fill="none" stroke="#6099D2" stroke-width="5" stroke-linecap="round" stroke-linejoin="round" d="
		M207.838,87.969c-8.693,3.787-7.734,8.985-16.815,15.6"/>
	
		<path id="path-14s_00000012458955153520405530000007697167994416704428_" fill="none" stroke="#6099D2" stroke-width="0.5" stroke-linecap="round" stroke-linejoin="round" d="
		M188.493,160.697c0,0-6.939,7.258-9.531,15.032s-2.591,17.196-2.591,17.196"/>
	
		<path id="path-15s_00000039843814875512135600000000801079983486126004_" fill="none" stroke="#6099D2" stroke-width="0.5" stroke-linecap="round" stroke-linejoin="round" d="
		M213.289,147.243c1.221,6.883,3.506,12.041,16.038,16.325"/>
	
		<path id="path-9s_00000126290443826661294840000010296421996756649871_" fill="none" stroke="#6099D2" stroke-width="7" stroke-linecap="round" stroke-linejoin="round" d="
		M248.589,92.906c-12.388-4.488-27.757-10.597-40.752-4.937"/>
	<g id="size_00000104686680727925866750000011615935553502752958_">
		
			<path id="_x3C_path_x3E__00000181053345848508826120000013551194534412549763_" fill="#0072BC" fill-opacity="0.57" stroke="#0072BC" stroke-width="0.5" stroke-miterlimit="10" d="
			M320.004,68.855c9.572,0,17.332,7.76,17.332,17.332s-7.76,17.332-17.332,17.332s-17.332-7.76-17.332-17.332
			S310.432,68.855,320.004,68.855L320.004,68.855"/>
		
			<path id="_x3C_path_x3E__00000017484547747493868420000012954911179376019614_" fill="#0072BC" fill-opacity="0.57" stroke="#0072BC" stroke-width="0.5" stroke-miterlimit="10" d="
			M227.431,101.25c5.877,0,10.642,4.765,10.642,10.642s-4.764,10.642-10.642,10.642s-10.642-4.765-10.642-10.642
			S221.554,101.25,227.431,101.25L227.431,101.25"/>
		
			<path id="_x3C_path_x3E__00000175319251397962804280000003061936391405140386_" fill="#0072BC" fill-opacity="0.57" stroke="#0072BC" stroke-width="0.5" stroke-miterlimit="10" d="
			M260.658,212.316c5.216,0,9.444,4.228,9.444,9.444s-4.228,9.444-9.444,9.444c-5.216,0-9.444-4.228-9.444-9.444
			S255.442,212.316,260.658,212.316L260.658,212.316"/>
		
			<path id="_x3C_path_x3E__00000183940820188768342130000008100008071059232136_" fill="#0072BC" fill-opacity="0.57" stroke="#0072BC" stroke-width="0.5" stroke-miterlimit="10" d="
			M140.247,98.337c3.45,0,6.246,2.797,6.246,6.246s-2.797,6.246-6.246,6.246c-3.45,0-6.246-2.797-6.246-6.246
			S136.798,98.337,140.247,98.337L140.247,98.337"/>
		
			<path id="_x3C_path_x3E__00000091728495044368914820000014225640498298287013_" fill="#0072BC" fill-opacity="0.57" stroke="#0072BC" stroke-width="0.5" stroke-miterlimit="10" d="
			M312.794,160.821c2.962,0,5.363,2.401,5.363,5.363s-2.401,5.363-5.363,5.363s-5.363-2.401-5.363-5.363
			S309.832,160.821,312.794,160.821L312.794,160.821"/>
		
			<path id="_x3C_path_x3E__00000055687464914194201610000010522865624653564544_" fill="#0072BC" fill-opacity="0.57" stroke="#0072BC" stroke-width="0.5" stroke-miterlimit="10" d="
			M165.401,146.331c2.695,0,4.88,2.185,4.88,4.88c0,2.695-2.185,4.88-4.88,4.88c-2.695,0-4.88-2.185-4.88-4.88
			C160.521,148.516,162.706,146.331,165.401,146.331L165.401,146.331"/>
		
			<path id="_x3C_path_x3E__00000147906438281751231340000008806806504055190200_" fill="#0072BC" fill-opacity="0.57" stroke="#0072BC" stroke-width="0.5" stroke-miterlimit="10" d="
			M192.787,126.387c2.372,0,4.294,1.923,4.294,4.294c0,2.372-1.923,4.294-4.294,4.294s-4.294-1.923-4.294-4.294
			C188.493,128.31,190.416,126.387,192.787,126.387L192.787,126.387"/>
		
			<path id="_x3C_path_x3E__00000134972699009169569440000002659061406188287128_" fill="#0072BC" fill-opacity="0.57" stroke="#0072BC" stroke-width="0.5" stroke-miterlimit="10" d="
			M183.051,78.327c1.731,0,3.135,1.404,3.135,3.135s-1.404,3.135-3.135,3.135c-1.731,0-3.135-1.404-3.135-3.135
			S181.32,78.327,183.051,78.327L183.051,78.327"/>
		
			<path id="_x3C_path_x3E__00000050636961814029382120000008220633812731978929_" fill="#0072BC" fill-opacity="0.57" stroke="#0072BC" stroke-width="0.5" stroke-miterlimit="10" d="
			M229.712,163.15c0.308,0,0.559,0.25,0.559,0.559c0,0.308-0.25,0.559-0.559,0.559s-0.559-0.25-0.559-0.559
			C229.153,163.4,229.403,163.15,229.712,163.15L229.712,163.15"/>
		
			<path id="_x3C_path_x3E__00000000181330295226344830000016213677843004088508_" fill="#0072BC" fill-opacity="0.57" stroke="#0072BC" stroke-width="0.5" stroke-miterlimit="10" d="
			M312.794,207.321c0.308,0,0.559,0.25,0.559,0.559c0,0.308-0.25,0.559-0.559,0.559c-0.308,0-0.559-0.25-0.559-0.559
			C312.236,207.571,312.486,207.321,312.794,207.321L312.794,207.321"/>
		
			<path id="_x3C_path_x3E__00000075161712003780565600000017044692378569434286_" fill="#0072BC" fill-opacity="0.57" stroke="#0072BC" stroke-width="0.5" stroke-miterlimit="10" d="
			M176.371,193.269c0.268,0,0.486,0.218,0.486,0.486s-0.218,0.486-0.486,0.486s-0.486-0.218-0.486-0.486
			S176.103,193.269,176.371,193.269L176.371,193.269"/>
		
			<path id="_x3C_path_x3E__00000001622269958320610790000002985463717118393504_" fill="#0072BC" fill-opacity="0.57" stroke="#0072BC" stroke-width="0.5" stroke-miterlimit="10" d="
			M1003.913,100.407c13.959,0,25.276,11.316,25.276,25.276s-11.316,25.276-25.276,25.276c-13.959,0-25.276-11.316-25.276-25.276
			S989.953,100.407,1003.913,100.407L1003.913,100.407"/>
		
			<path id="_x3C_path_x3E__00000052825282666098002790000009709020715936098484_" fill="#0072BC" fill-opacity="0.57" stroke="#0072BC" stroke-width="0.5" stroke-miterlimit="10" d="
			M868.91,147.649c8.571,0,15.519,6.948,15.519,15.519c0,8.571-6.948,15.519-15.519,15.519c-8.571,0-15.519-6.948-15.519-15.519
			C853.391,154.597,860.339,147.649,868.91,147.649L868.91,147.649"/>
		
			<path id="_x3C_path_x3E__00000008114934607361923830000003315061831283971464_" fill="#0072BC" fill-opacity="0.57" stroke="#0072BC" stroke-width="0.5" stroke-miterlimit="10" d="
			M917.366,309.615c7.606,0,13.772,6.166,13.772,13.772s-6.166,13.772-13.772,13.772c-7.606,0-13.772-6.166-13.772-13.772
			S909.76,309.615,917.366,309.615L917.366,309.615"/>
		
			<path id="_x3C_path_x3E__00000129176521961318643170000015170748256652060052_" fill="#0072BC" fill-opacity="0.57" stroke="#0072BC" stroke-width="0.5" stroke-miterlimit="10" d="
			M741.767,143.4c5.031,0,9.109,4.078,9.109,9.109c0,5.031-4.078,9.109-9.109,9.109s-9.109-4.078-9.109-9.109
			C732.658,147.478,736.736,143.4,741.767,143.4L741.767,143.4"/>
		
			<path id="_x3C_path_x3E__00000029727592324012522260000004015978149726051983_" fill="#0072BC" fill-opacity="0.57" stroke="#0072BC" stroke-width="0.5" stroke-miterlimit="10" d="
			M993.398,234.52c4.32,0,7.821,3.502,7.821,7.821s-3.502,7.821-7.821,7.821s-7.821-3.502-7.821-7.821
			S989.078,234.52,993.398,234.52L993.398,234.52"/>
		
			<path id="_x3C_path_x3E__00000124156966192163072420000010191716624819546498_" fill="#0072BC" fill-opacity="0.57" stroke="#0072BC" stroke-width="0.5" stroke-miterlimit="10" d="
			M778.45,213.389c3.931,0,7.117,3.186,7.117,7.117s-3.186,7.117-7.117,7.117c-3.931,0-7.117-3.186-7.117-7.117
			S774.519,213.389,778.45,213.389L778.45,213.389"/>
		
			<path id="_x3C_path_x3E__00000034050901465477867030000016579250653348390332_" fill="#0072BC" fill-opacity="0.57" stroke="#0072BC" stroke-width="0.5" stroke-miterlimit="10" d="
			M818.388,184.306c3.459,0,6.262,2.804,6.262,6.262s-2.804,6.262-6.262,6.262c-3.458,0-6.262-2.804-6.262-6.262
			S814.929,184.306,818.388,184.306L818.388,184.306"/>
		
			<path id="_x3C_path_x3E__00000144312412869383665170000014986780528992270490_" fill="#0072BC" fill-opacity="0.57" stroke="#0072BC" stroke-width="0.5" stroke-miterlimit="10" d="
			M804.189,114.22c2.525,0,4.572,2.047,4.572,4.572s-2.047,4.572-4.572,4.572s-4.572-2.047-4.572-4.572
			S801.664,114.22,804.189,114.22L804.189,114.22"/>
		
			<path id="_x3C_path_x3E__00000010276016764119428130000007987468588761865662_" fill="#0072BC" fill-opacity="0.57" stroke="#0072BC" stroke-width="0.5" stroke-miterlimit="10" d="
			M872.236,237.916c0.45,0,0.814,0.365,0.814,0.814s-0.365,0.814-0.814,0.814s-0.815-0.365-0.815-0.814
			S871.786,237.916,872.236,237.916L872.236,237.916"/>
		
			<path id="_x3C_path_x3E__00000067235892509620976350000011956492620981077182_" fill="#0072BC" fill-opacity="0.57" stroke="#0072BC" stroke-width="0.5" stroke-miterlimit="10" d="
			M993.398,302.33c0.45,0,0.815,0.365,0.815,0.814s-0.365,0.814-0.815,0.814s-0.814-0.365-0.814-0.814
			S992.948,302.33,993.398,302.33L993.398,302.33"/>
		
			<path id="_x3C_path_x3E__00000182504624725125673440000001195751278819669156_" fill="#0072BC" fill-opacity="0.57" stroke="#0072BC" stroke-width="0.5" stroke-miterlimit="10" d="
			M794.448,281.839c0.392,0,0.709,0.317,0.709,0.709c0,0.392-0.317,0.709-0.709,0.709c-0.391,0-0.709-0.317-0.709-0.709
			C793.739,282.156,794.056,281.839,794.448,281.839L794.448,281.839"/>
		
			<path id="_x3C_path_x3E__00000119118986520532549620000000081077187837220226_" fill="#0072BC" fill-opacity="0.57" stroke="#0072BC" stroke-width="0.5" stroke-miterlimit="10" d="
			M1924.269,137.698c19.144,0,34.664,15.52,34.664,34.664s-15.52,34.664-34.664,34.664s-34.664-15.52-34.664-34.664
			S1905.124,137.698,1924.269,137.698L1924.269,137.698"/>
		
			<path id="_x3C_path_x3E__00000068665762866687210740000007204057911680031894_" fill="#0072BC" fill-opacity="0.57" stroke="#0072BC" stroke-width="0.5" stroke-miterlimit="10" d="
			M1739.122,202.487c11.754,0,21.283,9.529,21.283,21.283s-9.529,21.283-21.283,21.283c-11.754,0-21.283-9.529-21.283-21.283
			S1727.368,202.487,1739.122,202.487L1739.122,202.487"/>
		
			<path id="_x3C_path_x3E__00000152980528195344640070000002005153756345632139_" fill="#0072BC" fill-opacity="0.57" stroke="#0072BC" stroke-width="0.5" stroke-miterlimit="10" d="
			M1805.577,424.612c10.432,0,18.888,8.456,18.888,18.888s-8.456,18.888-18.888,18.888s-18.888-8.456-18.888-18.888
			S1795.145,424.612,1805.577,424.612L1805.577,424.612"/>
		
			<path id="_x3C_path_x3E__00000046315798586832703120000003896949403067757697_" fill="#0072BC" fill-opacity="0.57" stroke="#0072BC" stroke-width="0.5" stroke-miterlimit="10" d="
			M1564.755,196.66c6.899,0,12.492,5.593,12.492,12.492s-5.593,12.492-12.492,12.492c-6.899,0-12.492-5.593-12.492-12.492
			S1557.856,196.66,1564.755,196.66L1564.755,196.66"/>
		
			<path id="_x3C_path_x3E__00000009557811214659820530000012483714234879582622_" fill="#0072BC" fill-opacity="0.57" stroke="#0072BC" stroke-width="0.5" stroke-miterlimit="10" d="
			M1909.849,321.625c5.924,0,10.726,4.802,10.726,10.726c0,5.924-4.802,10.726-10.726,10.726s-10.726-4.802-10.726-10.726
			C1899.122,326.427,1903.925,321.625,1909.849,321.625L1909.849,321.625"/>
		
			<path id="_x3C_path_x3E__00000000186474417647746900000015200673600554068139_" fill="#0072BC" fill-opacity="0.57" stroke="#0072BC" stroke-width="0.5" stroke-miterlimit="10" d="
			M1615.062,292.645c5.391,0,9.761,4.37,9.761,9.761s-4.37,9.761-9.761,9.761c-5.391,0-9.761-4.37-9.761-9.761
			S1609.672,292.645,1615.062,292.645L1615.062,292.645"/>
		
			<path id="_x3C_path_x3E__00000167362134480355339860000009689405155725934979_" fill="#0072BC" fill-opacity="0.57" stroke="#0072BC" stroke-width="0.5" stroke-miterlimit="10" d="
			M1669.835,252.759c4.743,0,8.588,3.845,8.588,8.588s-3.845,8.588-8.588,8.588c-4.743,0-8.588-3.845-8.588-8.588
			S1665.092,252.759,1669.835,252.759L1669.835,252.759"/>
		
			<path id="_x3C_path_x3E__00000048474341781763891670000010810551711775137669_" fill="#0072BC" fill-opacity="0.57" stroke="#0072BC" stroke-width="0.5" stroke-miterlimit="10" d="
			M1650.362,156.642c3.463,0,6.27,2.807,6.27,6.27c0,3.463-2.807,6.27-6.27,6.27s-6.27-2.807-6.27-6.27
			C1644.092,159.449,1646.9,156.642,1650.362,156.642L1650.362,156.642"/>
		
			<path id="_x3C_path_x3E__00000037690510572570666820000018439877831465288100_" fill="#0072BC" fill-opacity="0.57" stroke="#0072BC" stroke-width="0.5" stroke-miterlimit="10" d="
			M1743.684,326.282c0.617,0,1.117,0.5,1.117,1.117c0,0.617-0.5,1.117-1.117,1.117s-1.117-0.5-1.117-1.117
			C1742.567,326.783,1743.067,326.282,1743.684,326.282L1743.684,326.282"/>
		
			<path id="_x3C_path_x3E__00000165948319571896543360000016316079478436384924_" fill="#0072BC" fill-opacity="0.57" stroke="#0072BC" stroke-width="0.5" stroke-miterlimit="10" d="
			M1909.849,414.621c0.617,0,1.117,0.5,1.117,1.117s-0.5,1.117-1.117,1.117s-1.117-0.5-1.117-1.117
			S1909.232,414.621,1909.849,414.621L1909.849,414.621"/>
		
			<path id="_x3C_path_x3E__00000078746574882803893250000005817849723629674660_" fill="#0072BC" fill-opacity="0.57" stroke="#0072BC" stroke-width="0.5" stroke-miterlimit="10" d="
			M1637.003,386.519c0.537,0,0.972,0.435,0.972,0.972s-0.435,0.972-0.972,0.972s-0.972-0.435-0.972-0.972
			S1636.466,386.519,1637.003,386.519L1637.003,386.519"/>
	</g>
</g>
<style>
#g-returnee_movements-_480-interactions-img rect, #g-returnee_movements-_480-interactions-img circle, #g-returnee_movements-_480-interactions-img path, #g-returnee_movements-_480-interactions-img line, #g-returnee_movements-_480-interactions-img polyline { vector-effect: non-scaling-stroke; }
</style>
</svg>

