<?xml version="1.0" encoding="utf-8"?>
<!-- Generator: Adobe Illustrator 27.8.1, SVG Export Plug-In . SVG Version: 6.00 Build 0)  -->
<svg version="1.2" baseProfile="tiny" id="g-returnee_movements-_960-interactions-img" xmlns="http://www.w3.org/2000/svg" xmlns:xlink="http://www.w3.org/1999/xlink"
	 x="0px" y="0px" viewBox="0 0 960 540" overflow="visible" xml:space="preserve">
<g>
	
		<line id="path-1_00000017488876784669551060000007249669382186866099_" fill="none" stroke="#506489" stroke-width="39" stroke-linecap="round" stroke-linejoin="round" x1="615.251" y1="52.213" x2="604.361" y2="100.695"/>
	
		<path id="path-19_00000082327538296816092870000004093580489285347509_" fill="none" stroke="#506489" stroke-width="7" stroke-linecap="round" stroke-linejoin="round" d="
		M574.548,356.749c-9.203,25.165-23.196,53.739-44.474,82.497"/>
	
		<path id="path-7_00000009559867472801696050000004102548382363622325_" fill="none" stroke="#506489" stroke-width="8" stroke-linecap="round" stroke-linejoin="round" d="
		M592.225,272.299c0,0,0.086,35.876-17.677,84.449"/>
	
		<path id="path-3_00000070840226630748300120000017892405043781158286_" fill="none" stroke="#506489" stroke-width="13" stroke-linecap="round" stroke-linejoin="round" d="
		M607.079,94.625c-25.224,99.703-8.945,121.222-14.642,183.377"/>
	
		<path id="path-2_00000159436619321629356480000004792560348181021628_" fill="none" stroke="#506489" stroke-width="23" stroke-linecap="round" stroke-linejoin="round" d="
		M610.432,95.545c0,0,0.278,54.789,26.765,72.779"/>
	
		<path id="path-6_00000121975552956343328370000015824299205977521056_" fill="none" stroke="#506489" stroke-width="5" stroke-linecap="round" stroke-linejoin="round" d="
		M592.225,280.166c0,0,29.767,21.44,34.138,49.186"/>
	
		<path id="path-16_00000046304492781831530580000015063457793848245933_" fill="none" stroke="#506489" stroke-linecap="round" stroke-linejoin="round" d="
		M574.819,356.848c0,0,42.319,21.523,51.543,57.891"/>
	
		<path id="path-13_00000071528226585160700310000013413942222084588210_" fill="none" stroke="#506489" stroke-width="5" stroke-linecap="round" stroke-linejoin="round" d="
		M382.936,207.124c-55.648,24.72-65.455,0.113-95.146,0.056"/>
	
		<path id="path-4_00000028294844857369376110000003500896343635157409_" fill="none" stroke="#506489" stroke-width="16" stroke-linecap="round" stroke-linejoin="round" d="
		M596.863,91.283c-7.953,20.611-23.117,49.583-39.449,64.839c-8.011,7.484-17.042,12.397-27.239,16.177
		c-11.312,4.194-22.385,5.799-32.427,13.169"/>
	
		<path id="path-5_00000047054808361492983110000010158129355392305840_" fill="none" stroke="#506489" stroke-width="12" stroke-linecap="round" stroke-linejoin="round" d="
		M498.072,185.791c0,0-8.767,36.159-37.411,37.392"/>
	
		<path id="path-12_00000106131408591443814840000010548573544354650244_" fill="none" stroke="#506489" stroke-width="4" stroke-linecap="round" stroke-linejoin="round" d="
		M382.936,207.124c0,0,13.235,17.051,3.459,53.086"/>
	
		<path id="path-18_00000182528020817428948820000015690212603140441786_" fill="none" stroke="#506489" stroke-width="4.5" stroke-linecap="round" stroke-linejoin="round" d="
		M376.336,321.18c-14.962-2.058-29.063-7.889-41.69-16.422"/>
	
		<path id="path-17_00000124847914822737629800000013853637323695660419_" fill="none" stroke="#506489" stroke-width="5" stroke-linecap="round" stroke-linejoin="round" d="
		M427.468,294.469c-1.935,2.144-3.674,4.475-5.162,7.023c-3.424,5.865-6.767,11.976-12.75,15.608
		c-6.671,4.049-14.926,5.008-22.581,4.892c-3.588-0.054-7.137-0.329-10.639-0.811"/>
	
		<path id="path-8_00000013193175068045761440000017198272428171370624_" fill="none" stroke="#506489" stroke-width="6" stroke-linecap="round" stroke-linejoin="round" d="
		M601.863,93.439c0,0-34.657,116.352-68.365,149.989c-8.899,8.88-22.071,12.769-33.734,16.895
		c-14.103,4.99-28.488,9.245-42.272,15.1c-10.79,4.583-22.066,10.233-30.022,19.046"/>
	
		<path id="path-10_00000102519926475024734600000001583820673182270854_" fill="none" stroke="#506489" stroke-width="3" stroke-linecap="round" stroke-linejoin="round" d="
		M418.937,176.791c0,0-18.876-25.557-49.096-13.88"/>
	
		<path id="path-11_00000131355737644067496040000017900166949828180885_" fill="none" stroke="#506489" stroke-width="8" stroke-linecap="round" stroke-linejoin="round" d="
		M416.566,175.926c-17.387,7.573-15.469,17.969-33.63,31.198"/>
	
		<path id="path-14_00000068636458813194782970000017774316682578263227_" fill="none" stroke="#506489" stroke-linecap="round" stroke-linejoin="round" d="
		M377.877,321.376c0,0-13.879,14.515-19.061,30.063c-5.183,15.548-5.183,34.391-5.183,34.391"/>
	
		<path id="path-15_00000070108469605858962060000011842641209902667687_" fill="none" stroke="#506489" stroke-linecap="round" stroke-linejoin="round" d="
		M427.468,294.469c2.441,13.766,7.013,24.081,32.076,32.648"/>
	
		<path id="path-9_00000157289557556010928050000011939368311474172061_" fill="none" stroke="#506489" stroke-width="10" stroke-linecap="round" stroke-linejoin="round" d="
		M498.069,185.799c-24.776-8.976-55.513-21.194-81.503-9.873"/>
	<g id="size_00000077311163936856856210000006028115297120595890_">
		
			<path id="_x3C_path_x3E__00000167372410982287427580000002521730540931427262_" fill="#18375F" fill-opacity="0.57" stroke="#18375F" stroke-width="0.3" stroke-miterlimit="10" d="
			M-963.365,68.855c9.572,0,17.332,7.76,17.332,17.332s-7.76,17.332-17.332,17.332c-9.572,0-17.332-7.76-17.332-17.332
			S-972.938,68.855-963.365,68.855L-963.365,68.855"/>
		
			<path id="_x3C_path_x3E__00000000188684761440810960000006953796341744628904_" fill="#18375F" fill-opacity="0.57" stroke="#18375F" stroke-width="0.3" stroke-miterlimit="10" d="
			M-1055.939,101.25c5.877,0,10.641,4.765,10.641,10.642s-4.764,10.642-10.641,10.642c-5.877,0-10.642-4.765-10.642-10.642
			S-1061.816,101.25-1055.939,101.25L-1055.939,101.25"/>
		
			<path id="_x3C_path_x3E__00000068656357676993463170000001207472405115711419_" fill="#18375F" fill-opacity="0.57" stroke="#18375F" stroke-width="0.3" stroke-miterlimit="10" d="
			M-1022.711,212.316c5.216,0,9.444,4.228,9.444,9.444s-4.228,9.444-9.444,9.444s-9.444-4.228-9.444-9.444
			S-1027.927,212.316-1022.711,212.316L-1022.711,212.316"/>
		
			<path id="_x3C_path_x3E__00000150784248103450835130000009418551818814598832_" fill="#18375F" fill-opacity="0.57" stroke="#18375F" stroke-width="0.3" stroke-miterlimit="10" d="
			M-1143.122,98.337c3.45,0,6.246,2.797,6.246,6.246s-2.797,6.246-6.246,6.246c-3.45,0-6.246-2.797-6.246-6.246
			S-1146.572,98.337-1143.122,98.337L-1143.122,98.337"/>
		
			<path id="_x3C_path_x3E__00000107590005255683518460000002123049990888169889_" fill="#18375F" fill-opacity="0.57" stroke="#18375F" stroke-width="0.3" stroke-miterlimit="10" d="
			M-970.575,160.821c2.962,0,5.363,2.401,5.363,5.363s-2.401,5.363-5.363,5.363c-2.962,0-5.363-2.401-5.363-5.363
			S-973.537,160.821-970.575,160.821L-970.575,160.821"/>
		
			<path id="_x3C_path_x3E__00000008864281923614411640000010931590795388169391_" fill="#18375F" fill-opacity="0.57" stroke="#18375F" stroke-width="0.3" stroke-miterlimit="10" d="
			M-1117.969,146.331c2.695,0,4.88,2.185,4.88,4.88c0,2.695-2.185,4.88-4.88,4.88s-4.88-2.185-4.88-4.88
			C-1122.849,148.516-1120.664,146.331-1117.969,146.331L-1117.969,146.331"/>
		
			<path id="_x3C_path_x3E__00000011004928067375036560000005222137288877027719_" fill="#18375F" fill-opacity="0.57" stroke="#18375F" stroke-width="0.3" stroke-miterlimit="10" d="
			M-1090.582,126.387c2.372,0,4.294,1.923,4.294,4.294c0,2.372-1.922,4.294-4.294,4.294s-4.294-1.923-4.294-4.294
			C-1094.876,128.31-1092.954,126.387-1090.582,126.387L-1090.582,126.387"/>
		
			<path id="_x3C_path_x3E__00000116231640012288563060000010180117204070371972_" fill="#18375F" fill-opacity="0.57" stroke="#18375F" stroke-width="0.3" stroke-miterlimit="10" d="
			M-1100.319,78.327c1.731,0,3.135,1.404,3.135,3.135s-1.404,3.135-3.135,3.135s-3.135-1.404-3.135-3.135
			S-1102.05,78.327-1100.319,78.327L-1100.319,78.327"/>
		
			<path id="_x3C_path_x3E__00000160171482731433308980000000888199139211814272_" fill="#18375F" fill-opacity="0.57" stroke="#18375F" stroke-width="0.5" stroke-miterlimit="10" d="
			M-1053.658,163.15c0.308,0,0.558,0.25,0.558,0.559c0,0.308-0.25,0.559-0.558,0.559c-0.308,0-0.559-0.25-0.559-0.559
			C-1054.216,163.4-1053.966,163.15-1053.658,163.15L-1053.658,163.15"/>
		
			<path id="_x3C_path_x3E__00000176034635707608985800000012143913908349756060_" fill="#18375F" fill-opacity="0.57" stroke="#18375F" stroke-width="0.5" stroke-miterlimit="10" d="
			M-970.575,207.321c0.308,0,0.559,0.25,0.559,0.559c0,0.308-0.25,0.559-0.559,0.559s-0.558-0.25-0.558-0.559
			C-971.134,207.571-970.884,207.321-970.575,207.321L-970.575,207.321"/>
		
			<path id="_x3C_path_x3E__00000098195059873488058470000016372039812699273919_" fill="#18375F" fill-opacity="0.57" stroke="#18375F" stroke-width="0.5" stroke-miterlimit="10" d="
			M-1106.998,193.269c0.268,0,0.486,0.218,0.486,0.486s-0.218,0.486-0.486,0.486s-0.486-0.218-0.486-0.486
			S-1107.267,193.269-1106.998,193.269L-1106.998,193.269"/>
		
			<path id="_x3C_path_x3E__00000170265441101671934370000012703582436939115935_" fill="#18375F" fill-opacity="0.57" stroke="#18375F" stroke-width="0.5" stroke-miterlimit="10" d="
			M-279.457,100.407c13.959,0,25.276,11.316,25.276,25.276s-11.316,25.276-25.276,25.276c-13.959,0-25.276-11.316-25.276-25.276
			S-293.417,100.407-279.457,100.407L-279.457,100.407"/>
		
			<path id="_x3C_path_x3E__00000011028152862363761530000011520212551601927837_" fill="#18375F" fill-opacity="0.57" stroke="#18375F" stroke-width="0.5" stroke-miterlimit="10" d="
			M-414.46,147.649c8.571,0,15.519,6.948,15.519,15.519c0,8.571-6.948,15.519-15.519,15.519c-8.571,0-15.519-6.948-15.519-15.519
			C-429.979,154.597-423.031,147.649-414.46,147.649L-414.46,147.649"/>
		
			<path id="_x3C_path_x3E__00000134252244134741501280000016601117583276271536_" fill="#18375F" fill-opacity="0.57" stroke="#18375F" stroke-width="0.5" stroke-miterlimit="10" d="
			M-366.003,309.615c7.606,0,13.772,6.166,13.772,13.772s-6.166,13.772-13.772,13.772s-13.772-6.166-13.772-13.772
			S-373.61,309.615-366.003,309.615L-366.003,309.615"/>
		
			<path id="_x3C_path_x3E__00000181063981267954803340000001570131207602115755_" fill="#18375F" fill-opacity="0.57" stroke="#18375F" stroke-width="0.5" stroke-miterlimit="10" d="
			M-541.603,143.4c5.031,0,9.109,4.078,9.109,9.109c0,5.031-4.078,9.109-9.109,9.109s-9.109-4.078-9.109-9.109
			C-550.712,147.478-546.633,143.4-541.603,143.4L-541.603,143.4"/>
		
			<path id="_x3C_path_x3E__00000137818688465094811460000001109837459330004926_" fill="#18375F" fill-opacity="0.57" stroke="#18375F" stroke-width="0.5" stroke-miterlimit="10" d="
			M-289.972,234.52c4.32,0,7.821,3.502,7.821,7.821s-3.502,7.821-7.821,7.821s-7.821-3.502-7.821-7.821
			S-294.291,234.52-289.972,234.52L-289.972,234.52"/>
		
			<path id="_x3C_path_x3E__00000011749825883609233300000009551794303613713326_" fill="#18375F" fill-opacity="0.57" stroke="#18375F" stroke-width="0.5" stroke-miterlimit="10" d="
			M-504.92,213.389c3.931,0,7.117,3.186,7.117,7.117s-3.186,7.117-7.117,7.117s-7.117-3.186-7.117-7.117
			S-508.851,213.389-504.92,213.389L-504.92,213.389"/>
		
			<path id="_x3C_path_x3E__00000139276916790705063560000015630664129199100070_" fill="#18375F" fill-opacity="0.57" stroke="#18375F" stroke-width="0.5" stroke-miterlimit="10" d="
			M-464.982,184.306c3.459,0,6.262,2.804,6.262,6.262s-2.804,6.262-6.262,6.262s-6.262-2.804-6.262-6.262
			S-468.44,184.306-464.982,184.306L-464.982,184.306"/>
		
			<path id="_x3C_path_x3E__00000005256844707490908510000011152484210691096205_" fill="#18375F" fill-opacity="0.57" stroke="#18375F" stroke-width="0.5" stroke-miterlimit="10" d="
			M-479.181,114.22c2.525,0,4.572,2.047,4.572,4.572s-2.047,4.572-4.572,4.572s-4.572-2.047-4.572-4.572
			S-481.706,114.22-479.181,114.22L-479.181,114.22"/>
		
			<path id="_x3C_path_x3E__00000085241716873041379080000005523896412349651894_" fill="#18375F" fill-opacity="0.57" stroke="#18375F" stroke-width="0.5" stroke-miterlimit="10" d="
			M-411.134,237.916c0.45,0,0.814,0.365,0.814,0.814s-0.365,0.814-0.814,0.814s-0.814-0.365-0.814-0.814
			S-411.584,237.916-411.134,237.916L-411.134,237.916"/>
		
			<path id="_x3C_path_x3E__00000134964620542705933700000006393927482935478703_" fill="#18375F" fill-opacity="0.57" stroke="#18375F" stroke-width="0.5" stroke-miterlimit="10" d="
			M-289.972,302.33c0.45,0,0.814,0.365,0.814,0.814s-0.365,0.814-0.814,0.814s-0.814-0.365-0.814-0.814
			S-290.422,302.33-289.972,302.33L-289.972,302.33"/>
		
			<path id="_x3C_path_x3E__00000011014773434225326340000000009551403065567878_" fill="#18375F" fill-opacity="0.57" stroke="#18375F" stroke-width="0.5" stroke-miterlimit="10" d="
			M-488.922,281.839c0.392,0,0.709,0.317,0.709,0.709c0,0.392-0.317,0.709-0.709,0.709c-0.392,0-0.709-0.317-0.709-0.709
			C-489.631,282.156-489.313,281.839-488.922,281.839L-488.922,281.839"/>
		
			<path id="_x3C_path_x3E__00000079485306373721268680000008733823978483982243_" fill="#18375F" fill-opacity="0.57" stroke="#18375F" stroke-width="0.5" stroke-miterlimit="10" d="
			M640.899,137.698c19.144,0,34.664,15.52,34.664,34.664s-15.52,34.664-34.664,34.664s-34.664-15.52-34.664-34.664
			S621.755,137.698,640.899,137.698L640.899,137.698"/>
		
			<path id="_x3C_path_x3E__00000088817771848595355940000017480697860527695547_" fill="#18375F" fill-opacity="0.57" stroke="#18375F" stroke-width="0.5" stroke-miterlimit="10" d="
			M455.752,202.487c11.754,0,21.283,9.529,21.283,21.283s-9.529,21.283-21.283,21.283s-21.283-9.529-21.283-21.283
			S443.998,202.487,455.752,202.487L455.752,202.487"/>
		
			<path id="_x3C_path_x3E__00000162337900117483693970000017873509797799878286_" fill="#18375F" fill-opacity="0.57" stroke="#18375F" stroke-width="0.5" stroke-miterlimit="10" d="
			M522.207,424.612c10.431,0,18.888,8.456,18.888,18.888s-8.456,18.888-18.888,18.888c-10.431,0-18.888-8.456-18.888-18.888
			S511.775,424.612,522.207,424.612L522.207,424.612"/>
		
			<path id="_x3C_path_x3E__00000115505608363514767340000013705046446735611817_" fill="#18375F" fill-opacity="0.57" stroke="#18375F" stroke-width="0.5" stroke-miterlimit="10" d="
			M281.385,196.66c6.899,0,12.492,5.593,12.492,12.492s-5.593,12.492-12.492,12.492c-6.899,0-12.492-5.593-12.492-12.492
			S274.486,196.66,281.385,196.66L281.385,196.66"/>
		
			<path id="_x3C_path_x3E__00000016764253928800696360000009505725607298898351_" fill="#18375F" fill-opacity="0.57" stroke="#18375F" stroke-width="0.5" stroke-miterlimit="10" d="
			M626.479,321.625c5.924,0,10.726,4.802,10.726,10.726c0,5.924-4.802,10.726-10.726,10.726s-10.726-4.802-10.726-10.726
			C615.753,326.427,620.555,321.625,626.479,321.625L626.479,321.625"/>
		
			<path id="_x3C_path_x3E__00000000936095269199322710000015917290474118204840_" fill="#18375F" fill-opacity="0.57" stroke="#18375F" stroke-width="0.5" stroke-miterlimit="10" d="
			M331.693,292.645c5.391,0,9.761,4.37,9.761,9.761s-4.37,9.761-9.761,9.761c-5.391,0-9.761-4.37-9.761-9.761
			S326.302,292.645,331.693,292.645L331.693,292.645"/>
		
			<path id="_x3C_path_x3E__00000070098168384621284220000012332264477711043250_" fill="#18375F" fill-opacity="0.57" stroke="#18375F" stroke-width="0.5" stroke-miterlimit="10" d="
			M386.465,252.759c4.743,0,8.588,3.845,8.588,8.588s-3.845,8.588-8.588,8.588s-8.588-3.845-8.588-8.588
			S381.722,252.759,386.465,252.759L386.465,252.759"/>
		
			<path id="_x3C_path_x3E__00000052089046354207368470000015451025942745172113_" fill="#18375F" fill-opacity="0.57" stroke="#18375F" stroke-width="0.5" stroke-miterlimit="10" d="
			M366.993,156.642c3.463,0,6.27,2.807,6.27,6.27c0,3.463-2.807,6.27-6.27,6.27c-3.463,0-6.27-2.807-6.27-6.27
			C360.723,159.449,363.53,156.642,366.993,156.642L366.993,156.642"/>
		
			<path id="_x3C_path_x3E__00000155142391589038080950000008548846782266759335_" fill="#18375F" fill-opacity="0.57" stroke="#18375F" stroke-width="0.5" stroke-miterlimit="10" d="
			M460.314,326.282c0.617,0,1.117,0.5,1.117,1.117c0,0.617-0.5,1.117-1.117,1.117s-1.117-0.5-1.117-1.117
			C459.197,326.783,459.697,326.282,460.314,326.282L460.314,326.282"/>
		
			<path id="_x3C_path_x3E__00000105402352016948204410000018018289180051402170_" fill="#18375F" fill-opacity="0.57" stroke="#18375F" stroke-width="0.5" stroke-miterlimit="10" d="
			M626.479,414.621c0.617,0,1.117,0.5,1.117,1.117s-0.5,1.117-1.117,1.117c-0.617,0-1.117-0.5-1.117-1.117
			S625.862,414.621,626.479,414.621L626.479,414.621"/>
		
			<path id="_x3C_path_x3E__00000091699632280904804420000008581015013903852419_" fill="#18375F" fill-opacity="0.57" stroke="#18375F" stroke-width="0.5" stroke-miterlimit="10" d="
			M353.633,386.519c0.537,0,0.972,0.435,0.972,0.972s-0.435,0.972-0.972,0.972s-0.972-0.435-0.972-0.972
			S353.096,386.519,353.633,386.519L353.633,386.519"/>
	</g>
</g>
<style>
#g-returnee_movements-_960-interactions-img rect, #g-returnee_movements-_960-interactions-img circle, #g-returnee_movements-_960-interactions-img path, #g-returnee_movements-_960-interactions-img line, #g-returnee_movements-_960-interactions-img polyline { vector-effect: non-scaling-stroke; }
</style>
</svg>

