<?xml version="1.0" encoding="utf-8"?>
<!-- Generator: Adobe Illustrator 27.8.1, SVG Export Plug-In . SVG Version: 6.00 Build 0)  -->
<svg version="1.2" baseProfile="tiny" id="g-returnee_movements-_960-interactions-img" xmlns="http://www.w3.org/2000/svg" xmlns:xlink="http://www.w3.org/1999/xlink"
	 x="0px" y="0px" viewBox="0 0 960 540" overflow="visible" xml:space="preserve">
<g>
	
		<line id="path-1_00000027576469690172723440000004348070507670745512_" fill="none" stroke="#6099D2" stroke-width="39" stroke-linecap="round" stroke-linejoin="round" x1="615.251" y1="52.213" x2="604.361" y2="100.695"/>
	
		<path id="path-19_00000181051390864328961270000011424438184101639607_" fill="none" stroke="#6099D2" stroke-width="7" stroke-linecap="round" stroke-linejoin="round" d="
		M574.548,356.749c-9.203,25.165-23.196,53.739-44.474,82.497"/>
	
		<path id="path-7_00000123435005244637445620000002227381980329283752_" fill="none" stroke="#6099D2" stroke-width="8" stroke-linecap="round" stroke-linejoin="round" d="
		M592.225,272.299c0,0,0.086,35.876-17.677,84.449"/>
	
		<path id="path-3_00000115475750602575761850000015006521621820292518_" fill="none" stroke="#6099D2" stroke-width="13" stroke-linecap="round" stroke-linejoin="round" d="
		M607.079,94.625c-25.224,99.703-8.945,121.222-14.642,183.377"/>
	
		<path id="path-2_00000111157327812819977640000006235756443147762877_" fill="none" stroke="#6099D2" stroke-width="23" stroke-linecap="round" stroke-linejoin="round" d="
		M610.432,95.545c0,0,0.278,54.789,26.765,72.779"/>
	
		<path id="path-6_00000165210258164347656550000006395491676686093246_" fill="none" stroke="#6099D2" stroke-width="5" stroke-linecap="round" stroke-linejoin="round" d="
		M592.225,280.166c0,0,29.767,21.44,34.138,49.186"/>
	
		<path id="path-16_00000151530008814016006700000012820055098526395583_" fill="none" stroke="#6099D2" stroke-linecap="round" stroke-linejoin="round" d="
		M574.819,356.848c0,0,42.319,21.523,51.543,57.891"/>
	
		<path id="path-13_00000031196488760757926780000009551757441383260058_" fill="none" stroke="#6099D2" stroke-width="5" stroke-linecap="round" stroke-linejoin="round" d="
		M382.936,207.124c-55.648,24.72-65.455,0.113-95.146,0.056"/>
	
		<path id="path-4_00000137849331018775309210000013681875772765084544_" fill="none" stroke="#6099D2" stroke-width="16" stroke-linecap="round" stroke-linejoin="round" d="
		M596.863,91.283c-7.953,20.611-23.117,49.583-39.449,64.839c-8.011,7.484-17.042,12.397-27.239,16.177
		c-11.312,4.194-22.385,5.799-32.427,13.169"/>
	
		<path id="path-5_00000077288098793754054770000017966432745358803096_" fill="none" stroke="#6099D2" stroke-width="12" stroke-linecap="round" stroke-linejoin="round" d="
		M498.072,185.791c0,0-8.767,36.159-37.411,37.392"/>
	
		<path id="path-12_00000176029836388647326330000000806429828735204279_" fill="none" stroke="#6099D2" stroke-width="4" stroke-linecap="round" stroke-linejoin="round" d="
		M382.936,207.124c0,0,13.235,17.051,3.459,53.086"/>
	
		<path id="path-18_00000064338320935420172630000017460355943378883739_" fill="none" stroke="#6099D2" stroke-width="4.5" stroke-linecap="round" stroke-linejoin="round" d="
		M376.336,321.18c-14.962-2.058-29.063-7.889-41.69-16.422"/>
	
		<path id="path-17_00000019641248905541181560000015181241106896294540_" fill="none" stroke="#6099D2" stroke-width="5" stroke-linecap="round" stroke-linejoin="round" d="
		M427.468,294.469c-1.935,2.144-3.674,4.475-5.162,7.023c-3.424,5.865-6.767,11.976-12.75,15.608
		c-6.671,4.049-14.926,5.008-22.581,4.892c-3.588-0.054-7.137-0.329-10.639-0.811"/>
	
		<path id="path-8_00000002371510120198474290000000212301673230850698_" fill="none" stroke="#6099D2" stroke-width="6" stroke-linecap="round" stroke-linejoin="round" d="
		M601.863,93.439c0,0-34.657,116.352-68.365,149.989c-8.899,8.88-22.071,12.769-33.734,16.895
		c-14.103,4.99-28.488,9.245-42.272,15.1c-10.79,4.583-22.066,10.233-30.022,19.046"/>
	
		<path id="path-10_00000136402683470795516140000015489483089553157014_" fill="none" stroke="#6099D2" stroke-width="3" stroke-linecap="round" stroke-linejoin="round" d="
		M418.937,176.791c0,0-18.876-25.557-49.096-13.88"/>
	
		<path id="path-11_00000068671593072026079660000000678070434057972142_" fill="none" stroke="#6099D2" stroke-width="8" stroke-linecap="round" stroke-linejoin="round" d="
		M416.566,175.926c-17.387,7.573-15.469,17.969-33.63,31.198"/>
	
		<path id="path-14_00000181777991915387855440000010874609368354376616_" fill="none" stroke="#6099D2" stroke-linecap="round" stroke-linejoin="round" d="
		M377.877,321.376c0,0-13.879,14.515-19.061,30.063c-5.183,15.548-5.183,34.391-5.183,34.391"/>
	
		<path id="path-15_00000044154567449302672640000010473887593165793669_" fill="none" stroke="#6099D2" stroke-linecap="round" stroke-linejoin="round" d="
		M427.468,294.469c2.441,13.766,7.013,24.081,32.076,32.648"/>
	
		<path id="path-9_00000044880362142635377720000006517957852164222121_" fill="none" stroke="#6099D2" stroke-width="10" stroke-linecap="round" stroke-linejoin="round" d="
		M498.069,185.799c-24.776-8.976-55.513-21.194-81.503-9.873"/>
	<g id="size_00000101093342106632814010000011289611536614591152_">
		
			<path id="_x3C_path_x3E__00000102529833296852210020000011413292985522795160_" fill="#0072BC" fill-opacity="0.57" stroke="#0072BC" stroke-width="0.5" stroke-miterlimit="10" d="
			M-963.365,68.855c9.572,0,17.332,7.76,17.332,17.332s-7.76,17.332-17.332,17.332c-9.572,0-17.332-7.76-17.332-17.332
			S-972.938,68.855-963.365,68.855L-963.365,68.855"/>
		
			<path id="_x3C_path_x3E__00000033339542763996313540000003947259105651074694_" fill="#0072BC" fill-opacity="0.57" stroke="#0072BC" stroke-width="0.5" stroke-miterlimit="10" d="
			M-1055.939,101.25c5.877,0,10.641,4.765,10.641,10.642s-4.764,10.642-10.641,10.642c-5.877,0-10.642-4.765-10.642-10.642
			S-1061.816,101.25-1055.939,101.25L-1055.939,101.25"/>
		
			<path id="_x3C_path_x3E__00000011740685747312173240000000716071974146851715_" fill="#0072BC" fill-opacity="0.57" stroke="#0072BC" stroke-width="0.5" stroke-miterlimit="10" d="
			M-1022.711,212.316c5.216,0,9.444,4.228,9.444,9.444s-4.228,9.444-9.444,9.444s-9.444-4.228-9.444-9.444
			S-1027.927,212.316-1022.711,212.316L-1022.711,212.316"/>
		
			<path id="_x3C_path_x3E__00000098207042003231954220000010679108911350115223_" fill="#0072BC" fill-opacity="0.57" stroke="#0072BC" stroke-width="0.5" stroke-miterlimit="10" d="
			M-1143.122,98.337c3.45,0,6.246,2.797,6.246,6.246s-2.797,6.246-6.246,6.246c-3.45,0-6.246-2.797-6.246-6.246
			S-1146.572,98.337-1143.122,98.337L-1143.122,98.337"/>
		
			<path id="_x3C_path_x3E__00000159440525306500761720000015347328950320707990_" fill="#0072BC" fill-opacity="0.57" stroke="#0072BC" stroke-width="0.5" stroke-miterlimit="10" d="
			M-970.575,160.821c2.962,0,5.363,2.401,5.363,5.363s-2.401,5.363-5.363,5.363c-2.962,0-5.363-2.401-5.363-5.363
			S-973.537,160.821-970.575,160.821L-970.575,160.821"/>
		
			<path id="_x3C_path_x3E__00000054987574662389235730000012232862865813249447_" fill="#0072BC" fill-opacity="0.57" stroke="#0072BC" stroke-width="0.5" stroke-miterlimit="10" d="
			M-1117.969,146.331c2.695,0,4.88,2.185,4.88,4.88c0,2.695-2.185,4.88-4.88,4.88s-4.88-2.185-4.88-4.88
			C-1122.849,148.516-1120.664,146.331-1117.969,146.331L-1117.969,146.331"/>
		
			<path id="_x3C_path_x3E__00000142159616418856644120000015398906661033816477_" fill="#0072BC" fill-opacity="0.57" stroke="#0072BC" stroke-width="0.5" stroke-miterlimit="10" d="
			M-1090.582,126.387c2.372,0,4.294,1.923,4.294,4.294c0,2.372-1.922,4.294-4.294,4.294s-4.294-1.923-4.294-4.294
			C-1094.876,128.31-1092.954,126.387-1090.582,126.387L-1090.582,126.387"/>
		
			<path id="_x3C_path_x3E__00000098223062140191668530000003131143457972993178_" fill="#0072BC" fill-opacity="0.57" stroke="#0072BC" stroke-width="0.5" stroke-miterlimit="10" d="
			M-1100.319,78.327c1.731,0,3.135,1.404,3.135,3.135s-1.404,3.135-3.135,3.135s-3.135-1.404-3.135-3.135
			S-1102.05,78.327-1100.319,78.327L-1100.319,78.327"/>
		
			<path id="_x3C_path_x3E__00000065041328673801321380000000560584592926239623_" fill="#0072BC" fill-opacity="0.57" stroke="#0072BC" stroke-width="0.5" stroke-miterlimit="10" d="
			M-1053.658,163.15c0.308,0,0.558,0.25,0.558,0.559c0,0.308-0.25,0.559-0.558,0.559c-0.308,0-0.559-0.25-0.559-0.559
			C-1054.216,163.4-1053.966,163.15-1053.658,163.15L-1053.658,163.15"/>
		
			<path id="_x3C_path_x3E__00000122717840682637068830000015828347938013957804_" fill="#0072BC" fill-opacity="0.57" stroke="#0072BC" stroke-width="0.5" stroke-miterlimit="10" d="
			M-970.575,207.321c0.308,0,0.559,0.25,0.559,0.559c0,0.308-0.25,0.559-0.559,0.559s-0.558-0.25-0.558-0.559
			C-971.134,207.571-970.884,207.321-970.575,207.321L-970.575,207.321"/>
		
			<path id="_x3C_path_x3E__00000163766361614316936240000011985548937226635945_" fill="#0072BC" fill-opacity="0.57" stroke="#0072BC" stroke-width="0.5" stroke-miterlimit="10" d="
			M-1106.998,193.269c0.268,0,0.486,0.218,0.486,0.486s-0.218,0.486-0.486,0.486s-0.486-0.218-0.486-0.486
			S-1107.267,193.269-1106.998,193.269L-1106.998,193.269"/>
		
			<path id="_x3C_path_x3E__00000097458242590968280780000000235343390438720665_" fill="#0072BC" fill-opacity="0.57" stroke="#0072BC" stroke-width="0.5" stroke-miterlimit="10" d="
			M-279.457,100.407c13.959,0,25.276,11.316,25.276,25.276s-11.316,25.276-25.276,25.276c-13.959,0-25.276-11.316-25.276-25.276
			S-293.417,100.407-279.457,100.407L-279.457,100.407"/>
		
			<path id="_x3C_path_x3E__00000011750132412749521190000013090948028359138988_" fill="#0072BC" fill-opacity="0.57" stroke="#0072BC" stroke-width="0.5" stroke-miterlimit="10" d="
			M-414.46,147.649c8.571,0,15.519,6.948,15.519,15.519c0,8.571-6.948,15.519-15.519,15.519c-8.571,0-15.519-6.948-15.519-15.519
			C-429.979,154.597-423.031,147.649-414.46,147.649L-414.46,147.649"/>
		
			<path id="_x3C_path_x3E__00000067920172040796606210000013209676151596453292_" fill="#0072BC" fill-opacity="0.57" stroke="#0072BC" stroke-width="0.5" stroke-miterlimit="10" d="
			M-366.003,309.615c7.606,0,13.772,6.166,13.772,13.772s-6.166,13.772-13.772,13.772s-13.772-6.166-13.772-13.772
			S-373.61,309.615-366.003,309.615L-366.003,309.615"/>
		
			<path id="_x3C_path_x3E__00000170252692347085211090000001198185660292787072_" fill="#0072BC" fill-opacity="0.57" stroke="#0072BC" stroke-width="0.5" stroke-miterlimit="10" d="
			M-541.603,143.4c5.031,0,9.109,4.078,9.109,9.109c0,5.031-4.078,9.109-9.109,9.109s-9.109-4.078-9.109-9.109
			C-550.712,147.478-546.633,143.4-541.603,143.4L-541.603,143.4"/>
		
			<path id="_x3C_path_x3E__00000023273347031833530950000005211374933894974105_" fill="#0072BC" fill-opacity="0.57" stroke="#0072BC" stroke-width="0.5" stroke-miterlimit="10" d="
			M-289.972,234.52c4.32,0,7.821,3.502,7.821,7.821s-3.502,7.821-7.821,7.821s-7.821-3.502-7.821-7.821
			S-294.291,234.52-289.972,234.52L-289.972,234.52"/>
		
			<path id="_x3C_path_x3E__00000158731253899807462090000003725389416834179494_" fill="#0072BC" fill-opacity="0.57" stroke="#0072BC" stroke-width="0.5" stroke-miterlimit="10" d="
			M-504.92,213.389c3.931,0,7.117,3.186,7.117,7.117s-3.186,7.117-7.117,7.117s-7.117-3.186-7.117-7.117
			S-508.851,213.389-504.92,213.389L-504.92,213.389"/>
		
			<path id="_x3C_path_x3E__00000000219348646130273610000008275281350429561503_" fill="#0072BC" fill-opacity="0.57" stroke="#0072BC" stroke-width="0.5" stroke-miterlimit="10" d="
			M-464.982,184.306c3.459,0,6.262,2.804,6.262,6.262s-2.804,6.262-6.262,6.262s-6.262-2.804-6.262-6.262
			S-468.44,184.306-464.982,184.306L-464.982,184.306"/>
		
			<path id="_x3C_path_x3E__00000059294220545907412720000002117127745651702198_" fill="#0072BC" fill-opacity="0.57" stroke="#0072BC" stroke-width="0.5" stroke-miterlimit="10" d="
			M-479.181,114.22c2.525,0,4.572,2.047,4.572,4.572s-2.047,4.572-4.572,4.572s-4.572-2.047-4.572-4.572
			S-481.706,114.22-479.181,114.22L-479.181,114.22"/>
		
			<path id="_x3C_path_x3E__00000014631530232132700900000017555116277793722509_" fill="#0072BC" fill-opacity="0.57" stroke="#0072BC" stroke-width="0.5" stroke-miterlimit="10" d="
			M-411.134,237.916c0.45,0,0.814,0.365,0.814,0.814s-0.365,0.814-0.814,0.814s-0.814-0.365-0.814-0.814
			S-411.584,237.916-411.134,237.916L-411.134,237.916"/>
		
			<path id="_x3C_path_x3E__00000075869921105340408560000017207603761074223288_" fill="#0072BC" fill-opacity="0.57" stroke="#0072BC" stroke-width="0.5" stroke-miterlimit="10" d="
			M-289.972,302.33c0.45,0,0.814,0.365,0.814,0.814s-0.365,0.814-0.814,0.814s-0.814-0.365-0.814-0.814
			S-290.422,302.33-289.972,302.33L-289.972,302.33"/>
		
			<path id="_x3C_path_x3E__00000027576426195996689050000015912887532402117032_" fill="#0072BC" fill-opacity="0.57" stroke="#0072BC" stroke-width="0.5" stroke-miterlimit="10" d="
			M-488.922,281.839c0.392,0,0.709,0.317,0.709,0.709c0,0.392-0.317,0.709-0.709,0.709c-0.392,0-0.709-0.317-0.709-0.709
			C-489.631,282.156-489.313,281.839-488.922,281.839L-488.922,281.839"/>
		
			<path id="_x3C_path_x3E__00000031901302505880105650000014426373999790201490_" fill="#0072BC" fill-opacity="0.57" stroke="#0072BC" stroke-width="0.5" stroke-miterlimit="10" d="
			M640.899,137.698c19.144,0,34.664,15.52,34.664,34.664s-15.52,34.664-34.664,34.664s-34.664-15.52-34.664-34.664
			S621.755,137.698,640.899,137.698L640.899,137.698"/>
		
			<path id="_x3C_path_x3E__00000176043663287299705650000002201294325286201517_" fill="#0072BC" fill-opacity="0.57" stroke="#0072BC" stroke-width="0.5" stroke-miterlimit="10" d="
			M455.752,202.487c11.754,0,21.283,9.529,21.283,21.283s-9.529,21.283-21.283,21.283s-21.283-9.529-21.283-21.283
			S443.998,202.487,455.752,202.487L455.752,202.487"/>
		
			<path id="_x3C_path_x3E__00000063614623166075266450000011840101910548064649_" fill="#0072BC" fill-opacity="0.57" stroke="#0072BC" stroke-width="0.5" stroke-miterlimit="10" d="
			M522.207,424.612c10.431,0,18.888,8.456,18.888,18.888s-8.456,18.888-18.888,18.888c-10.431,0-18.888-8.456-18.888-18.888
			S511.775,424.612,522.207,424.612L522.207,424.612"/>
		
			<path id="_x3C_path_x3E__00000098180618215571205650000000652802636615211950_" fill="#0072BC" fill-opacity="0.57" stroke="#0072BC" stroke-width="0.5" stroke-miterlimit="10" d="
			M281.385,196.66c6.899,0,12.492,5.593,12.492,12.492s-5.593,12.492-12.492,12.492c-6.899,0-12.492-5.593-12.492-12.492
			S274.486,196.66,281.385,196.66L281.385,196.66"/>
		
			<path id="_x3C_path_x3E__00000104707315816669307250000017664054420253196952_" fill="#0072BC" fill-opacity="0.57" stroke="#0072BC" stroke-width="0.5" stroke-miterlimit="10" d="
			M626.479,321.625c5.924,0,10.726,4.802,10.726,10.726c0,5.924-4.802,10.726-10.726,10.726s-10.726-4.802-10.726-10.726
			C615.753,326.427,620.555,321.625,626.479,321.625L626.479,321.625"/>
		
			<path id="_x3C_path_x3E__00000180349937140698925510000007486029154514652807_" fill="#0072BC" fill-opacity="0.57" stroke="#0072BC" stroke-width="0.5" stroke-miterlimit="10" d="
			M331.693,292.645c5.391,0,9.761,4.37,9.761,9.761s-4.37,9.761-9.761,9.761c-5.391,0-9.761-4.37-9.761-9.761
			S326.302,292.645,331.693,292.645L331.693,292.645"/>
		
			<path id="_x3C_path_x3E__00000124133908713296916290000003212525967014998145_" fill="#0072BC" fill-opacity="0.57" stroke="#0072BC" stroke-width="0.5" stroke-miterlimit="10" d="
			M386.465,252.759c4.743,0,8.588,3.845,8.588,8.588s-3.845,8.588-8.588,8.588s-8.588-3.845-8.588-8.588
			S381.722,252.759,386.465,252.759L386.465,252.759"/>
		
			<path id="_x3C_path_x3E__00000148621581228794142310000003448431826050286521_" fill="#0072BC" fill-opacity="0.57" stroke="#0072BC" stroke-width="0.5" stroke-miterlimit="10" d="
			M366.993,156.642c3.463,0,6.27,2.807,6.27,6.27c0,3.463-2.807,6.27-6.27,6.27c-3.463,0-6.27-2.807-6.27-6.27
			C360.723,159.449,363.53,156.642,366.993,156.642L366.993,156.642"/>
		
			<path id="_x3C_path_x3E__00000114072231959472058980000003716488831481769131_" fill="#0072BC" fill-opacity="0.57" stroke="#0072BC" stroke-width="0.5" stroke-miterlimit="10" d="
			M460.314,326.282c0.617,0,1.117,0.5,1.117,1.117c0,0.617-0.5,1.117-1.117,1.117s-1.117-0.5-1.117-1.117
			C459.197,326.783,459.697,326.282,460.314,326.282L460.314,326.282"/>
		
			<path id="_x3C_path_x3E__00000008124782291653253470000000244466978364214925_" fill="#0072BC" fill-opacity="0.57" stroke="#0072BC" stroke-width="0.5" stroke-miterlimit="10" d="
			M626.479,414.621c0.617,0,1.117,0.5,1.117,1.117s-0.5,1.117-1.117,1.117c-0.617,0-1.117-0.5-1.117-1.117
			S625.862,414.621,626.479,414.621L626.479,414.621"/>
		
			<path id="_x3C_path_x3E__00000073721538792195191920000015192166282640994739_" fill="#0072BC" fill-opacity="0.57" stroke="#0072BC" stroke-width="0.5" stroke-miterlimit="10" d="
			M353.633,386.519c0.537,0,0.972,0.435,0.972,0.972s-0.435,0.972-0.972,0.972s-0.972-0.435-0.972-0.972
			S353.096,386.519,353.633,386.519L353.633,386.519"/>
	</g>
</g>
<style>
#g-returnee_movements-_960-interactions-img rect, #g-returnee_movements-_960-interactions-img circle, #g-returnee_movements-_960-interactions-img path, #g-returnee_movements-_960-interactions-img line, #g-returnee_movements-_960-interactions-img polyline { vector-effect: non-scaling-stroke; }
</style>
</svg>

