<?xml version="1.0" encoding="utf-8"?>
<!-- Generator: Adobe Illustrator 27.5.0, SVG Export Plug-In . SVG Version: 6.00 Build 0)  -->
<svg version="1.2" baseProfile="tiny" id="g-eth_animation-_360-interactions-img" xmlns="http://www.w3.org/2000/svg" xmlns:xlink="http://www.w3.org/1999/xlink"
	 x="0px" y="0px" viewBox="0 0 360 255.093" overflow="visible" xml:space="preserve">
<g>
	<g id="movements_00000129920198555409014220000010807294134541811618_">
		<path fill="none" stroke="#EF4960" stroke-width="2" stroke-miterlimit="10" d="M1422.731-107.871
			c0,0-173.475-69.918-281.923,23.305"/>
		<path fill="none" stroke="#EF4960" stroke-width="2" stroke-miterlimit="10" d="M1421.734-100.793
			c0,0-141.232-40.529-237.811,35.266"/>
		<path fill="none" stroke="#EF4960" stroke-width="2" stroke-miterlimit="10" d="M1422.415-95.231c0,0-96.516-5.457-177.725,47.393
			"/>
		<path fill="none" stroke="#EF4960" stroke-width="2" stroke-miterlimit="10" d="M1452.646-91.4c0,0,32.132,21.777,37.87,91.577"/>
		<path fill="none" stroke="#EF4960" stroke-width="2" stroke-miterlimit="10" d="M1447.091-85.74
			c6.086,11.378,18.353,42.532,11.786,86.041"/>
		<path fill="none" stroke="#EF4960" stroke-width="2" stroke-miterlimit="10" d="M1437.321-83.385
			c13.602,25.628-5.707,57.295-21.023,81.332"/>
		<path fill="none" stroke="#EF4960" stroke-width="2" stroke-miterlimit="10" d="M1425.453-88.515c0,0-89.254,11.927-97.498,74.439
			"/>
		<path fill="none" stroke="#EF4960" stroke-width="1.5" stroke-miterlimit="10" d="M738.52-17.376
			c0,0-129.97-52.384-211.221,17.461"/>
		<path fill="none" stroke="#EF4960" stroke-width="1.5" stroke-miterlimit="10" d="M737.773-12.073
			c0,0-105.813-30.365-178.172,26.422"/>
		<path fill="none" stroke="#EF4960" stroke-width="1.5" stroke-miterlimit="10" d="M738.284-7.906c0,0-72.311-4.088-133.155,35.507
			"/>
		<path fill="none" stroke="#EF4960" stroke-width="1.5" stroke-miterlimit="10" d="M760.933-5.036c0,0,24.074,16.315,28.373,68.611
			"/>
		<path fill="none" stroke="#EF4960" stroke-width="1.5" stroke-miterlimit="10" d="M756.771-0.795
			c4.56,8.525,13.75,31.865,8.83,64.463"/>
		<path fill="none" stroke="#EF4960" stroke-width="1.5" stroke-miterlimit="10" d="M749.452,0.97
			c10.191,19.201-4.276,42.927-15.751,60.935"/>
		<path fill="none" stroke="#EF4960" stroke-width="1.5" stroke-miterlimit="10" d="M740.56-2.874c0,0-66.87,8.936-73.047,55.771"/>
		<path fill="none" stroke="#EF4960" stroke-miterlimit="10" d="M206.102,51.112c0,0-97.342-39.233-158.195,13.077"/>
		<path fill="none" stroke="#EF4960" stroke-miterlimit="10" d="M205.543,55.084c0,0-79.249-22.742-133.443,19.789"/>
		<path fill="none" stroke="#EF4960" stroke-miterlimit="10" d="M205.925,58.205c0,0-54.158-3.062-99.727,26.593"/>
		<path fill="none" stroke="#EF4960" stroke-miterlimit="10" d="M222.888,60.355c0,0,18.03,12.22,21.25,51.387"/>
		<path fill="none" stroke="#EF4960" stroke-miterlimit="10" d="M219.771,63.531c3.415,6.385,10.298,23.866,6.613,48.28"/>
		<path fill="none" stroke="#EF4960" stroke-miterlimit="10" d="M214.289,64.852c7.632,14.38-3.202,32.15-11.796,45.637"/>
		<path fill="none" stroke="#EF4960" stroke-miterlimit="10" d="M207.63,61.974c0,0-50.083,6.693-54.709,41.77"/>
	</g>
</g>
<style>
#g-eth_animation-_360-interactions-img rect, #g-eth_animation-_360-interactions-img circle, #g-eth_animation-_360-interactions-img path, #g-eth_animation-_360-interactions-img line, #g-eth_animation-_360-interactions-img polyline { vector-effect: non-scaling-stroke; }
</style>
</svg>

