<?xml version="1.0" encoding="utf-8"?>
<!-- Generator: Adobe Illustrator 27.5.0, SVG Export Plug-In . SVG Version: 6.00 Build 0)  -->
<svg version="1.2" baseProfile="tiny" id="g-eth_animation-_640-interactions-img" xmlns="http://www.w3.org/2000/svg" xmlns:xlink="http://www.w3.org/1999/xlink"
	 x="0px" y="0px" viewBox="0 0 640 453.498" overflow="visible" xml:space="preserve">
<g>
	<g id="movements_00000108286773608886671250000005583473611216092830_">
		<path fill="none" stroke="#EF4960" stroke-width="2" stroke-miterlimit="10" d="M366.517,90.534
			c0,0-173.475-69.918-281.923,23.305"/>
		<path fill="none" stroke="#EF4960" stroke-width="2" stroke-miterlimit="10" d="M365.521,97.612
			c0,0-141.232-40.529-237.811,35.266"/>
		<path fill="none" stroke="#EF4960" stroke-width="2" stroke-miterlimit="10" d="M366.202,103.174c0,0-96.516-5.457-177.725,47.393
			"/>
		<path fill="none" stroke="#EF4960" stroke-width="2" stroke-miterlimit="10" d="M396.432,107.005c0,0,32.132,21.777,37.87,91.577"
			/>
		<path fill="none" stroke="#EF4960" stroke-width="2" stroke-miterlimit="10" d="M390.877,112.666
			c6.086,11.378,18.353,42.532,11.786,86.041"/>
		<path fill="none" stroke="#EF4960" stroke-width="2" stroke-miterlimit="10" d="M381.108,115.02
			c13.602,25.628-5.707,57.295-21.023,81.332"/>
		<path fill="none" stroke="#EF4960" stroke-width="2" stroke-miterlimit="10" d="M369.24,109.89c0,0-89.254,11.927-97.498,74.439"
			/>
		<path fill="none" stroke="#EF4960" stroke-width="1.5" stroke-miterlimit="10" d="M-317.693,181.03
			c0,0-129.97-52.384-211.221,17.461"/>
		<path fill="none" stroke="#EF4960" stroke-width="1.5" stroke-miterlimit="10" d="M-318.44,186.333
			c0,0-105.813-30.365-178.172,26.422"/>
		<path fill="none" stroke="#EF4960" stroke-width="1.5" stroke-miterlimit="10" d="M-317.93,190.5c0,0-72.311-4.088-133.155,35.507
			"/>
		<path fill="none" stroke="#EF4960" stroke-width="1.5" stroke-miterlimit="10" d="M-295.28,193.37
			c0,0,24.074,16.315,28.373,68.611"/>
		<path fill="none" stroke="#EF4960" stroke-width="1.5" stroke-miterlimit="10" d="M-299.443,197.611
			c4.56,8.525,13.75,31.865,8.83,64.463"/>
		<path fill="none" stroke="#EF4960" stroke-width="1.5" stroke-miterlimit="10" d="M-306.762,199.375
			c10.191,19.201-4.276,42.927-15.751,60.935"/>
		<path fill="none" stroke="#EF4960" stroke-width="1.5" stroke-miterlimit="10" d="M-315.653,195.532
			c0,0-66.87,8.936-73.047,55.771"/>
		<path fill="none" stroke="#EF4960" stroke-miterlimit="10" d="M-850.111,249.518c0,0-97.342-39.233-158.195,13.077"/>
		<path fill="none" stroke="#EF4960" stroke-miterlimit="10" d="M-850.67,253.49c0,0-79.249-22.742-133.443,19.789"/>
		<path fill="none" stroke="#EF4960" stroke-miterlimit="10" d="M-850.288,256.611c0,0-54.158-3.062-99.727,26.593"/>
		<path fill="none" stroke="#EF4960" stroke-miterlimit="10" d="M-833.325,258.76c0,0,18.03,12.219,21.25,51.387"/>
		<path fill="none" stroke="#EF4960" stroke-miterlimit="10" d="M-836.442,261.936c3.415,6.385,10.298,23.866,6.614,48.28"/>
		<path fill="none" stroke="#EF4960" stroke-miterlimit="10" d="M-841.924,263.258c7.632,14.38-3.202,32.15-11.796,45.638"/>
		<path fill="none" stroke="#EF4960" stroke-miterlimit="10" d="M-848.583,260.379c0,0-50.083,6.693-54.709,41.77"/>
	</g>
</g>
<style>
#g-eth_animation-_640-interactions-img rect, #g-eth_animation-_640-interactions-img circle, #g-eth_animation-_640-interactions-img path, #g-eth_animation-_640-interactions-img line, #g-eth_animation-_640-interactions-img polyline { vector-effect: non-scaling-stroke; }
</style>
</svg>

