<?xml version="1.0" encoding="utf-8"?>
<!-- Generator: Adobe Illustrator 27.5.0, SVG Export Plug-In . SVG Version: 6.00 Build 0)  -->
<svg version="1.2" baseProfile="tiny" id="g-eth_animation-_480-interactions-img" xmlns="http://www.w3.org/2000/svg" xmlns:xlink="http://www.w3.org/1999/xlink"
	 x="0px" y="0px" viewBox="0 0 480 340.476" overflow="visible" xml:space="preserve">
<g>
	<g id="movements_00000047020285036497746870000013132299657503721893_">
		<path fill="none" stroke="#EF4960" stroke-width="2" stroke-miterlimit="10" d="M959.055-22.488
			c0,0-173.475-69.918-281.923,23.305"/>
		<path fill="none" stroke="#EF4960" stroke-width="2" stroke-miterlimit="10" d="M958.058-15.41c0,0-141.232-40.529-237.811,35.266
			"/>
		<path fill="none" stroke="#EF4960" stroke-width="2" stroke-miterlimit="10" d="M958.74-9.848c0,0-96.516-5.457-177.725,47.393"/>
		<path fill="none" stroke="#EF4960" stroke-width="2" stroke-miterlimit="10" d="M988.97-6.017c0,0,32.132,21.777,37.87,91.577"/>
		<path fill="none" stroke="#EF4960" stroke-width="2" stroke-miterlimit="10" d="M983.415-0.357
			c6.086,11.378,18.353,42.532,11.786,86.041"/>
		<path fill="none" stroke="#EF4960" stroke-width="2" stroke-miterlimit="10" d="M973.646,1.998
			c13.602,25.628-5.707,57.295-21.023,81.332"/>
		<path fill="none" stroke="#EF4960" stroke-width="2" stroke-miterlimit="10" d="M961.778-3.132c0,0-89.254,11.927-97.498,74.439"
			/>
		<path fill="none" stroke="#EF4960" stroke-width="1.5" stroke-miterlimit="10" d="M274.845,68.007
			c0,0-129.97-52.384-211.221,17.461"/>
		<path fill="none" stroke="#EF4960" stroke-width="1.5" stroke-miterlimit="10" d="M274.098,73.31
			c0,0-105.813-30.365-178.172,26.422"/>
		<path fill="none" stroke="#EF4960" stroke-width="1.5" stroke-miterlimit="10" d="M274.608,77.478
			c0,0-72.311-4.088-133.155,35.507"/>
		<path fill="none" stroke="#EF4960" stroke-width="1.5" stroke-miterlimit="10" d="M297.257,80.348
			c0,0,24.074,16.315,28.373,68.611"/>
		<path fill="none" stroke="#EF4960" stroke-width="1.5" stroke-miterlimit="10" d="M293.095,84.589
			c4.56,8.525,13.75,31.865,8.83,64.463"/>
		<path fill="none" stroke="#EF4960" stroke-width="1.5" stroke-miterlimit="10" d="M285.776,86.353
			c10.191,19.201-4.276,42.927-15.751,60.935"/>
		<path fill="none" stroke="#EF4960" stroke-width="1.5" stroke-miterlimit="10" d="M276.884,82.509c0,0-66.87,8.936-73.047,55.771"
			/>
		<path fill="none" stroke="#EF4960" stroke-miterlimit="10" d="M-257.573,136.496c0,0-97.342-39.233-158.195,13.077"/>
		<path fill="none" stroke="#EF4960" stroke-miterlimit="10" d="M-258.133,140.467c0,0-79.249-22.742-133.443,19.789"/>
		<path fill="none" stroke="#EF4960" stroke-miterlimit="10" d="M-257.75,143.588c0,0-54.158-3.062-99.727,26.593"/>
		<path fill="none" stroke="#EF4960" stroke-miterlimit="10" d="M-240.787,145.738c0,0,18.03,12.22,21.25,51.387"/>
		<path fill="none" stroke="#EF4960" stroke-miterlimit="10" d="M-243.904,148.914c3.415,6.385,10.298,23.866,6.614,48.28"/>
		<path fill="none" stroke="#EF4960" stroke-miterlimit="10" d="M-249.386,150.235c7.632,14.38-3.202,32.15-11.796,45.637"/>
		<path fill="none" stroke="#EF4960" stroke-miterlimit="10" d="M-256.046,147.357c0,0-50.083,6.693-54.709,41.77"/>
	</g>
</g>
<style>
#g-eth_animation-_480-interactions-img rect, #g-eth_animation-_480-interactions-img circle, #g-eth_animation-_480-interactions-img path, #g-eth_animation-_480-interactions-img line, #g-eth_animation-_480-interactions-img polyline { vector-effect: non-scaling-stroke; }
</style>
</svg>

